   <svg className='w-[90%] md:h-[565px] h-[465px]'  viewBox="0 0 450 565" fill="none" xmlns="http://www.w3.org/2000/svg">
                <path fill-rule="evenodd" clip-rule="evenodd" d="M20 50C20 33.4314 33.4315 20 50 20H380C396.569 20 410 33.4315 410 50V360.007C399.779 360.271 391.582 368.002 391.582 377.5C391.582 386.998 399.779 394.729 410 394.993V495C410 511.569 396.569 525 380 525H50C33.4315 525 20 511.569 20 495V394.823C29.1868 393.609 36.2487 386.316 36.2487 377.5C36.2487 368.684 29.1868 361.391 20 360.177V50Z" fill="white" fill-opacity="0.05" />
                <path fill-rule="evenodd" clip-rule="evenodd" d="M40 70C40 53.4314 53.4315 40 70 40H400C416.569 40 430 53.4315 430 70V380.007C419.779 380.271 411.582 388.002 411.582 397.5C411.582 406.998 419.779 414.729 430 414.993V515C430 531.569 416.569 545 400 545H70C53.4315 545 40 531.569 40 515V414.823C49.1868 413.609 56.2487 406.316 56.2487 397.5C56.2487 388.684 49.1868 381.391 40 380.177V70Z" fill="white" fill-opacity="0.05" />
                <path fill-rule="evenodd" clip-rule="evenodd" d="M60 90C60 73.4314 73.4315 60 90 60H420C436.569 60 450 73.4315 450 90V400.007C439.779 400.271 431.582 408.002 431.582 417.5C431.582 426.998 439.779 434.729 450 434.993V535C450 551.569 436.569 565 420 565H90C73.4315 565 60 551.569 60 535V434.823C69.1868 433.609 76.2487 426.316 76.2487 417.5C76.2487 408.684 69.1868 401.391 60 400.177V90Z" fill="white" fill-opacity="0.05" />
                <path fill-rule="evenodd" clip-rule="evenodd" d="M0 30C0 13.4314 13.4315 0 30 0H360C376.569 0 390 13.4315 390 30V340.007C379.779 340.271 371.582 348.002 371.582 357.5C371.582 366.998 379.779 374.729 390 374.993V475C390 491.569 376.569 505 360 505H30C13.4315 505 0 491.569 0 475V374.823C9.18683 373.609 16.2487 366.316 16.2487 357.5C16.2487 348.684 9.18683 341.391 0 340.177V30Z" fill="white" />
                <g clip-path="url(#clip0_2_7532)">
                    <rect x="30" y="30" width="146" height="36" rx="18" fill="#313EF7" fill-opacity="0.1" />
                    <path d="M43.5266 47.632H49.2866V48.992H43.5266V47.632ZM43.6706 52.608H50.1986V54H42.0706V42.8H49.9746V44.192H43.6706V52.608ZM56.152 54.096C55.288 54.096 54.5147 53.9093 53.832 53.536C53.16 53.1627 52.632 52.6507 52.248 52C51.864 51.3493 51.672 50.6027 51.672 49.76C51.672 48.9173 51.864 48.1707 52.248 47.52C52.632 46.8693 53.16 46.3627 53.832 46C54.5147 45.6267 55.288 45.44 56.152 45.44C56.92 45.44 57.6027 45.5947 58.2 45.904C58.808 46.2027 59.2773 46.6507 59.608 47.248L58.44 48C58.1627 47.584 57.8213 47.28 57.416 47.088C57.0213 46.8853 56.5947 46.784 56.136 46.784C55.5813 46.784 55.0853 46.9067 54.648 47.152C54.2107 47.3973 53.864 47.744 53.608 48.192C53.352 48.6293 53.224 49.152 53.224 49.76C53.224 50.368 53.352 50.896 53.608 51.344C53.864 51.792 54.2107 52.1387 54.648 52.384C55.0853 52.6293 55.5813 52.752 56.136 52.752C56.5947 52.752 57.0213 52.656 57.416 52.464C57.8213 52.2613 58.1627 51.952 58.44 51.536L59.608 52.272C59.2773 52.8587 58.808 53.312 58.2 53.632C57.6027 53.9413 56.92 54.096 56.152 54.096ZM65.1036 54.096C64.2503 54.096 63.493 53.9093 62.8316 53.536C62.1703 53.1627 61.6476 52.6507 61.2636 52C60.8796 51.3387 60.6876 50.592 60.6876 49.76C60.6876 48.9173 60.8796 48.1707 61.2636 47.52C61.6476 46.8693 62.1703 46.3627 62.8316 46C63.493 45.6267 64.2503 45.44 65.1036 45.44C65.9463 45.44 66.6983 45.6267 67.3596 46C68.0316 46.3627 68.5543 46.8693 68.9276 47.52C69.3116 48.16 69.5036 48.9067 69.5036 49.76C69.5036 50.6027 69.3116 51.3493 68.9276 52C68.5543 52.6507 68.0316 53.1627 67.3596 53.536C66.6983 53.9093 65.9463 54.096 65.1036 54.096ZM65.1036 52.752C65.6476 52.752 66.133 52.6293 66.5596 52.384C66.997 52.1387 67.3383 51.792 67.5836 51.344C67.829 50.8853 67.9516 50.3573 67.9516 49.76C67.9516 49.152 67.829 48.6293 67.5836 48.192C67.3383 47.744 66.997 47.3973 66.5596 47.152C66.133 46.9067 65.6476 46.784 65.1036 46.784C64.5596 46.784 64.0743 46.9067 63.6476 47.152C63.221 47.3973 62.8796 47.744 62.6236 48.192C62.3676 48.6293 62.2396 49.152 62.2396 49.76C62.2396 50.3573 62.3676 50.8853 62.6236 51.344C62.8796 51.792 63.221 52.1387 63.6476 52.384C64.0743 52.6293 64.5596 52.752 65.1036 52.752ZM76.1559 45.44C76.8492 45.44 77.4572 45.5733 77.9799 45.84C78.5132 46.1067 78.9292 46.512 79.2279 47.056C79.5265 47.6 79.6759 48.288 79.6759 49.12V54H78.1399V49.296C78.1399 48.4747 77.9372 47.856 77.5319 47.44C77.1372 47.024 76.5772 46.816 75.8519 46.816C75.3079 46.816 74.8332 46.9227 74.4279 47.136C74.0225 47.3493 73.7079 47.664 73.4839 48.08C73.2705 48.496 73.1639 49.0133 73.1639 49.632V54H71.6279V45.52H73.0999V47.808L72.8599 47.2C73.1372 46.6453 73.5639 46.2133 74.1399 45.904C74.7159 45.5947 75.3879 45.44 76.1559 45.44ZM86.1505 54.096C85.2972 54.096 84.5398 53.9093 83.8785 53.536C83.2172 53.1627 82.6945 52.6507 82.3105 52C81.9265 51.3387 81.7345 50.592 81.7345 49.76C81.7345 48.9173 81.9265 48.1707 82.3105 47.52C82.6945 46.8693 83.2172 46.3627 83.8785 46C84.5398 45.6267 85.2972 45.44 86.1505 45.44C86.9932 45.44 87.7452 45.6267 88.4065 46C89.0785 46.3627 89.6012 46.8693 89.9745 47.52C90.3585 48.16 90.5505 48.9067 90.5505 49.76C90.5505 50.6027 90.3585 51.3493 89.9745 52C89.6012 52.6507 89.0785 53.1627 88.4065 53.536C87.7452 53.9093 86.9932 54.096 86.1505 54.096ZM86.1505 52.752C86.6945 52.752 87.1798 52.6293 87.6065 52.384C88.0438 52.1387 88.3852 51.792 88.6305 51.344C88.8758 50.8853 88.9985 50.3573 88.9985 49.76C88.9985 49.152 88.8758 48.6293 88.6305 48.192C88.3852 47.744 88.0438 47.3973 87.6065 47.152C87.1798 46.9067 86.6945 46.784 86.1505 46.784C85.6065 46.784 85.1212 46.9067 84.6945 47.152C84.2678 47.3973 83.9265 47.744 83.6705 48.192C83.4145 48.6293 83.2865 49.152 83.2865 49.76C83.2865 50.3573 83.4145 50.8853 83.6705 51.344C83.9265 51.792 84.2678 52.1387 84.6945 52.384C85.1212 52.6293 85.6065 52.752 86.1505 52.752ZM103.283 45.44C103.965 45.44 104.568 45.5733 105.091 45.84C105.613 46.1067 106.019 46.512 106.307 47.056C106.605 47.6 106.755 48.288 106.755 49.12V54H105.219V49.296C105.219 48.4747 105.027 47.856 104.643 47.44C104.259 47.024 103.72 46.816 103.027 46.816C102.515 46.816 102.067 46.9227 101.683 47.136C101.299 47.3493 101 47.664 100.787 48.08C100.584 48.496 100.483 49.0133 100.483 49.632V54H98.9468V49.296C98.9468 48.4747 98.7548 47.856 98.3708 47.44C97.9974 47.024 97.4588 46.816 96.7548 46.816C96.2534 46.816 95.8108 46.9227 95.4268 47.136C95.0428 47.3493 94.7441 47.664 94.5308 48.08C94.3174 48.496 94.2108 49.0133 94.2108 49.632V54H92.6748V45.52H94.1468V47.776L93.9068 47.2C94.1734 46.6453 94.5841 46.2133 95.1388 45.904C95.6934 45.5947 96.3388 45.44 97.0748 45.44C97.8854 45.44 98.5841 45.6427 99.1708 46.048C99.7574 46.4427 100.141 47.0453 100.323 47.856L99.6988 47.6C99.9548 46.9493 100.403 46.4267 101.043 46.032C101.683 45.6373 102.429 45.44 103.283 45.44ZM109.793 57.2C109.387 57.2 108.993 57.1307 108.609 56.992C108.225 56.864 107.894 56.672 107.617 56.416L108.273 55.264C108.486 55.4667 108.721 55.6213 108.977 55.728C109.233 55.8347 109.505 55.888 109.793 55.888C110.166 55.888 110.475 55.792 110.721 55.6C110.966 55.408 111.195 55.0667 111.409 54.576L111.937 53.408L112.097 53.216L115.425 45.52H116.929L112.817 54.848C112.571 55.4453 112.294 55.9147 111.985 56.256C111.686 56.5973 111.355 56.8373 110.993 56.976C110.63 57.1253 110.23 57.2 109.793 57.2ZM111.809 54.272L107.937 45.52H109.537L112.833 53.072L111.809 54.272ZM126.147 54.128C125.294 54.128 124.478 54 123.699 53.744C122.92 53.4773 122.307 53.136 121.859 52.72L122.451 51.472C122.878 51.8453 123.422 52.1547 124.083 52.4C124.744 52.6453 125.432 52.768 126.147 52.768C126.798 52.768 127.326 52.6933 127.731 52.544C128.136 52.3947 128.435 52.192 128.627 51.936C128.819 51.6693 128.915 51.3707 128.915 51.04C128.915 50.656 128.787 50.3467 128.531 50.112C128.286 49.8773 127.96 49.6907 127.555 49.552C127.16 49.4027 126.723 49.2747 126.243 49.168C125.763 49.0613 125.278 48.9387 124.787 48.8C124.307 48.6507 123.864 48.464 123.459 48.24C123.064 48.016 122.744 47.7173 122.499 47.344C122.254 46.96 122.131 46.4693 122.131 45.872C122.131 45.296 122.28 44.768 122.579 44.288C122.888 43.7973 123.358 43.408 123.987 43.12C124.627 42.8213 125.438 42.672 126.419 42.672C127.07 42.672 127.715 42.7573 128.355 42.928C128.995 43.0987 129.55 43.344 130.019 43.664L129.491 44.944C129.011 44.624 128.504 44.3947 127.971 44.256C127.438 44.1067 126.92 44.032 126.419 44.032C125.79 44.032 125.272 44.112 124.867 44.272C124.462 44.432 124.163 44.6453 123.971 44.912C123.79 45.1787 123.699 45.4773 123.699 45.808C123.699 46.2027 123.822 46.5173 124.067 46.752C124.323 46.9867 124.648 47.1733 125.043 47.312C125.448 47.4507 125.891 47.5787 126.371 47.696C126.851 47.8027 127.331 47.9253 127.811 48.064C128.302 48.2027 128.744 48.384 129.139 48.608C129.544 48.832 129.87 49.1307 130.115 49.504C130.36 49.8773 130.483 50.3573 130.483 50.944C130.483 51.5093 130.328 52.0373 130.019 52.528C129.71 53.008 129.23 53.3973 128.579 53.696C127.939 53.984 127.128 54.128 126.147 54.128ZM137.861 54V52.208L137.781 51.872V48.816C137.781 48.1653 137.589 47.664 137.205 47.312C136.831 46.9493 136.266 46.768 135.509 46.768C135.007 46.768 134.517 46.8533 134.037 47.024C133.557 47.184 133.151 47.4027 132.821 47.68L132.181 46.528C132.618 46.176 133.141 45.9093 133.749 45.728C134.367 45.536 135.013 45.44 135.685 45.44C136.847 45.44 137.743 45.7227 138.373 46.288C139.002 46.8533 139.317 47.7173 139.317 48.88V54H137.861ZM135.077 54.096C134.447 54.096 133.893 53.9893 133.413 53.776C132.943 53.5627 132.581 53.2693 132.325 52.896C132.069 52.512 131.941 52.08 131.941 51.6C131.941 51.1413 132.047 50.7253 132.261 50.352C132.485 49.9787 132.842 49.68 133.333 49.456C133.834 49.232 134.506 49.12 135.349 49.12H138.037V50.224H135.413C134.645 50.224 134.127 50.352 133.861 50.608C133.594 50.864 133.461 51.1733 133.461 51.536C133.461 51.952 133.626 52.288 133.957 52.544C134.287 52.7893 134.746 52.912 135.333 52.912C135.909 52.912 136.41 52.784 136.837 52.528C137.274 52.272 137.589 51.8987 137.781 51.408L138.085 52.464C137.882 52.9653 137.525 53.3653 137.013 53.664C136.501 53.952 135.855 54.096 135.077 54.096ZM144.227 54L140.515 45.52H142.115L145.411 53.2H144.643L148.003 45.52H149.507L145.795 54H144.227ZM154.482 54.096C153.575 54.096 152.775 53.9093 152.082 53.536C151.399 53.1627 150.866 52.6507 150.482 52C150.109 51.3493 149.922 50.6027 149.922 49.76C149.922 48.9173 150.103 48.1707 150.466 47.52C150.839 46.8693 151.346 46.3627 151.986 46C152.637 45.6267 153.367 45.44 154.178 45.44C154.999 45.44 155.725 45.6213 156.354 45.984C156.983 46.3467 157.474 46.8587 157.826 47.52C158.189 48.1707 158.37 48.9333 158.37 49.808C158.37 49.872 158.365 49.9467 158.354 50.032C158.354 50.1173 158.349 50.1973 158.338 50.272H151.122V49.168H157.538L156.914 49.552C156.925 49.008 156.813 48.5227 156.578 48.096C156.343 47.6693 156.018 47.3387 155.602 47.104C155.197 46.8587 154.722 46.736 154.178 46.736C153.645 46.736 153.17 46.8587 152.754 47.104C152.338 47.3387 152.013 47.6747 151.778 48.112C151.543 48.5387 151.426 49.0293 151.426 49.584V49.84C151.426 50.4053 151.554 50.912 151.81 51.36C152.077 51.7973 152.445 52.1387 152.914 52.384C153.383 52.6293 153.922 52.752 154.53 52.752C155.031 52.752 155.485 52.6667 155.89 52.496C156.306 52.3253 156.669 52.0693 156.978 51.728L157.826 52.72C157.442 53.168 156.962 53.5093 156.386 53.744C155.821 53.9787 155.186 54.096 154.482 54.096ZM160.503 54V45.52H161.975V47.824L161.831 47.248C162.066 46.6613 162.46 46.2133 163.015 45.904C163.57 45.5947 164.252 45.44 165.063 45.44V46.928C164.999 46.9173 164.935 46.912 164.871 46.912C164.818 46.912 164.764 46.912 164.711 46.912C163.89 46.912 163.239 47.1573 162.759 47.648C162.279 48.1387 162.039 48.848 162.039 49.776V54H160.503Z" fill="#313EF7" />
                    <path d="M274.679 54.16C273.143 54.16 271.938 53.728 271.063 52.864C270.199 52 269.767 50.752 269.767 49.12V42.8H271.847V49.04C271.847 50.192 272.093 51.0293 272.583 51.552C273.085 52.0747 273.789 52.336 274.695 52.336C275.602 52.336 276.301 52.0747 276.791 51.552C277.282 51.0293 277.527 50.192 277.527 49.04V42.8H279.575V49.12C279.575 50.752 279.138 52 278.263 52.864C277.399 53.728 276.205 54.16 274.679 54.16ZM284.344 51.36L284.232 48.896L290.104 42.8H292.44L287.56 47.984L286.408 49.248L284.344 51.36ZM282.488 54V42.8H284.568V54H282.488ZM290.296 54L286.008 48.896L287.384 47.376L292.728 54H290.296Z" fill="#030522" />
                    <g clip-path="url(#clip1_2_7532)">
                        <rect width="25" height="35" transform="translate(301 30.5)" fill="white" />
                        <path d="M306.106 52.0593C306.265 52.1154 306.433 52.1428 306.602 52.1402L311.796 51.9769L312.469 51.1735C312.498 51.1396 312.533 51.1119 312.573 51.0924C312.612 51.0729 312.656 51.0619 312.7 51.0601L318.381 50.8334C318.447 50.8307 318.512 50.8487 318.567 50.8847C318.623 50.9208 318.665 50.9732 318.69 51.0347C318.714 51.0961 318.718 51.1636 318.702 51.2277C318.686 51.2918 318.651 51.3494 318.601 51.3924L318.286 51.6632L324.698 51.4015C324.894 51.3935 325.083 51.326 325.24 51.208C325.397 51.09 325.514 50.9271 325.577 50.7409C325.639 50.5546 325.643 50.3539 325.589 50.1652C325.534 49.9766 325.424 49.8089 325.272 49.6846C324.587 49.1257 323.794 48.7134 322.943 48.4733C322.093 48.2332 321.202 48.1704 320.325 48.2889L307.096 49.9018C307.04 49.9087 306.983 49.9004 306.931 49.8778C306.879 49.8552 306.834 49.8192 306.801 49.7735L304.775 46.9943C304.48 46.5874 304.088 46.26 303.635 46.0412C303.182 45.8223 302.682 45.7188 302.179 45.7398L301.364 45.7731L304.417 50.7229C304.801 51.3565 305.401 51.8308 306.106 52.0593Z" fill="#313EF7" />
                        <path d="M308.481 57.3756L315.74 51.1395L311.112 51.324L306.592 56.7157L308.481 57.3756Z" fill="#313EF7" />
                        <path d="M316.9 48.408L312.58 44.8557L311.351 45.1181L314.174 48.7403L316.9 48.408Z" fill="#313EF7" />
                    </g>
                    <path d="M335.809 54V42.8H341.057C342.401 42.8 343.425 43.0667 344.129 43.6C344.833 44.1227 345.185 44.8267 345.185 45.712C345.185 46.3093 345.046 46.8213 344.769 47.248C344.491 47.664 344.118 47.9893 343.649 48.224C343.19 48.448 342.689 48.56 342.145 48.56L342.433 47.984C343.062 47.984 343.627 48.1013 344.129 48.336C344.63 48.56 345.025 48.8907 345.313 49.328C345.611 49.7653 345.761 50.3093 345.761 50.96C345.761 51.92 345.393 52.6667 344.657 53.2C343.921 53.7333 342.827 54 341.377 54H335.809ZM337.889 52.368H341.249C342.027 52.368 342.625 52.24 343.041 51.984C343.457 51.728 343.665 51.3173 343.665 50.752C343.665 50.1973 343.457 49.792 343.041 49.536C342.625 49.2693 342.027 49.136 341.249 49.136H337.729V47.52H340.833C341.558 47.52 342.113 47.392 342.497 47.136C342.891 46.88 343.089 46.496 343.089 45.984C343.089 45.4613 342.891 45.072 342.497 44.816C342.113 44.56 341.558 44.432 340.833 44.432H337.889V52.368ZM347.981 54V42.8H352.877C354.093 42.8 355.159 43.0347 356.077 43.504C356.994 43.9733 357.709 44.624 358.221 45.456C358.733 46.288 358.989 47.2693 358.989 48.4C358.989 49.52 358.733 50.5013 358.221 51.344C357.709 52.176 356.994 52.8267 356.077 53.296C355.159 53.7653 354.093 54 352.877 54H347.981ZM350.061 52.24H352.781C353.623 52.24 354.349 52.08 354.957 51.76C355.575 51.44 356.05 50.992 356.381 50.416C356.722 49.84 356.893 49.168 356.893 48.4C356.893 47.6213 356.722 46.9493 356.381 46.384C356.05 45.808 355.575 45.36 354.957 45.04C354.349 44.72 353.623 44.56 352.781 44.56H350.061V52.24Z" fill="#030522" />
                </g>
                <g clip-path="url(#clip2_2_7532)">
                    <path d="M35.632 108.192C34.608 108.192 33.7173 107.979 32.96 107.552C32.2133 107.125 31.6373 106.501 31.232 105.68C30.8267 104.859 30.624 103.845 30.624 102.64C30.624 101.349 30.864 100.256 31.344 99.36C31.8347 98.464 32.5067 97.7813 33.36 97.312C34.224 96.8427 35.216 96.608 36.336 96.608C36.9333 96.608 37.504 96.672 38.048 96.8C38.592 96.928 39.0613 97.12 39.456 97.376L38.496 99.28C38.1867 99.0667 37.856 98.9227 37.504 98.848C37.152 98.7627 36.784 98.72 36.4 98.72C35.4293 98.72 34.6613 99.0133 34.096 99.6C33.5307 100.187 33.248 101.056 33.248 102.208C33.248 102.4 33.248 102.613 33.248 102.848C33.2587 103.083 33.2907 103.317 33.344 103.552L32.624 102.88C32.8267 102.464 33.088 102.117 33.408 101.84C33.728 101.552 34.1067 101.339 34.544 101.2C34.992 101.051 35.4827 100.976 36.016 100.976C36.7413 100.976 37.392 101.12 37.968 101.408C38.544 101.696 39.0027 102.101 39.344 102.624C39.696 103.147 39.872 103.76 39.872 104.464C39.872 105.221 39.68 105.883 39.296 106.448C38.9227 107.003 38.416 107.435 37.776 107.744C37.1467 108.043 36.432 108.192 35.632 108.192ZM35.488 106.256C35.8507 106.256 36.1707 106.192 36.448 106.064C36.736 105.925 36.96 105.728 37.12 105.472C37.28 105.216 37.36 104.923 37.36 104.592C37.36 104.08 37.184 103.675 36.832 103.376C36.4907 103.067 36.032 102.912 35.456 102.912C35.072 102.912 34.736 102.987 34.448 103.136C34.16 103.275 33.9307 103.472 33.76 103.728C33.6 103.973 33.52 104.261 33.52 104.592C33.52 104.912 33.6 105.2 33.76 105.456C33.92 105.701 34.144 105.899 34.432 106.048C34.72 106.187 35.072 106.256 35.488 106.256ZM48.4468 101.84H53.8228V103.92H48.4468V101.84ZM48.6388 108H46.0468V96.8H54.5108V98.88H48.6388V108ZM56.0895 108V96.128H58.5855V108H56.0895ZM60.902 108V99.392H63.398V108H60.902ZM62.15 98.192C61.6913 98.192 61.318 98.0587 61.03 97.792C60.742 97.5253 60.598 97.1947 60.598 96.8C60.598 96.4053 60.742 96.0747 61.03 95.808C61.318 95.5413 61.6913 95.408 62.15 95.408C62.6087 95.408 62.982 95.536 63.27 95.792C63.558 96.0373 63.702 96.3573 63.702 96.752C63.702 97.168 63.558 97.5147 63.27 97.792C62.9927 98.0587 62.6193 98.192 62.15 98.192ZM69.7625 111.232C68.9518 111.232 68.1678 111.131 67.4105 110.928C66.6638 110.736 66.0398 110.443 65.5385 110.048L66.5305 108.256C66.8932 108.555 67.3518 108.789 67.9065 108.96C68.4718 109.141 69.0265 109.232 69.5705 109.232C70.4558 109.232 71.0958 109.035 71.4905 108.64C71.8958 108.245 72.0985 107.659 72.0985 106.88V105.584L72.2585 103.424L72.2265 101.248V99.392H74.5945V106.56C74.5945 108.16 74.1785 109.339 73.3465 110.096C72.5145 110.853 71.3198 111.232 69.7625 111.232ZM69.3785 107.584C68.5785 107.584 67.8532 107.413 67.2025 107.072C66.5625 106.72 66.0452 106.235 65.6505 105.616C65.2665 104.987 65.0745 104.256 65.0745 103.424C65.0745 102.581 65.2665 101.851 65.6505 101.232C66.0452 100.603 66.5625 100.117 67.2025 99.776C67.8532 99.4347 68.5785 99.264 69.3785 99.264C70.1038 99.264 70.7438 99.4133 71.2985 99.712C71.8532 100 72.2852 100.453 72.5945 101.072C72.9038 101.68 73.0585 102.464 73.0585 103.424C73.0585 104.373 72.9038 105.157 72.5945 105.776C72.2852 106.384 71.8532 106.837 71.2985 107.136C70.7438 107.435 70.1038 107.584 69.3785 107.584ZM69.8745 105.536C70.3118 105.536 70.7012 105.451 71.0425 105.28C71.3838 105.099 71.6505 104.848 71.8425 104.528C72.0345 104.208 72.1305 103.84 72.1305 103.424C72.1305 102.997 72.0345 102.629 71.8425 102.32C71.6505 102 71.3838 101.755 71.0425 101.584C70.7012 101.403 70.3118 101.312 69.8745 101.312C69.4372 101.312 69.0478 101.403 68.7065 101.584C68.3652 101.755 68.0932 102 67.8905 102.32C67.6985 102.629 67.6025 102.997 67.6025 103.424C67.6025 103.84 67.6985 104.208 67.8905 104.528C68.0932 104.848 68.3652 105.099 68.7065 105.28C69.0478 105.451 69.4372 105.536 69.8745 105.536ZM82.1496 99.264C82.8323 99.264 83.4403 99.4027 83.9736 99.68C84.5176 99.9467 84.9443 100.363 85.2536 100.928C85.563 101.483 85.7176 102.197 85.7176 103.072V108H83.2216V103.456C83.2216 102.763 83.067 102.251 82.7576 101.92C82.459 101.589 82.0323 101.424 81.4776 101.424C81.083 101.424 80.7256 101.509 80.4056 101.68C80.0963 101.84 79.851 102.091 79.6696 102.432C79.499 102.773 79.4136 103.211 79.4136 103.744V108H76.9176V96.128H79.4136V101.776L78.8536 101.056C79.163 100.48 79.6056 100.037 80.1816 99.728C80.7576 99.4187 81.4136 99.264 82.1496 99.264ZM91.5001 108.128C90.4868 108.128 89.6975 107.872 89.1321 107.36C88.5668 106.837 88.2841 106.064 88.2841 105.04V97.488H90.7801V105.008C90.7801 105.371 90.8761 105.653 91.0681 105.856C91.2601 106.048 91.5215 106.144 91.8521 106.144C92.2468 106.144 92.5828 106.037 92.8601 105.824L93.5321 107.584C93.2761 107.765 92.9668 107.904 92.6041 108C92.2521 108.085 91.8841 108.128 91.5001 108.128ZM86.9561 101.504V99.584H92.9241V101.504H86.9561ZM101.961 108V98.912H98.3765V96.8H108.137V98.912H104.553V108H101.961ZM109.355 108V99.392H111.851V108H109.355ZM110.603 98.192C110.144 98.192 109.771 98.0587 109.483 97.792C109.195 97.5253 109.051 97.1947 109.051 96.8C109.051 96.4053 109.195 96.0747 109.483 95.808C109.771 95.5413 110.144 95.408 110.603 95.408C111.062 95.408 111.435 95.536 111.723 95.792C112.011 96.0373 112.155 96.3573 112.155 96.752C112.155 97.168 112.011 97.5147 111.723 97.792C111.446 98.0587 111.072 98.192 110.603 98.192ZM118.328 108.128C117.4 108.128 116.573 107.941 115.848 107.568C115.122 107.184 114.552 106.656 114.136 105.984C113.73 105.312 113.528 104.549 113.528 103.696C113.528 102.832 113.73 102.069 114.136 101.408C114.552 100.736 115.122 100.213 115.848 99.84C116.573 99.456 117.4 99.264 118.328 99.264C119.234 99.264 120.024 99.456 120.696 99.84C121.368 100.213 121.864 100.752 122.184 101.456L120.248 102.496C120.024 102.091 119.741 101.792 119.4 101.6C119.069 101.408 118.706 101.312 118.312 101.312C117.885 101.312 117.501 101.408 117.16 101.6C116.818 101.792 116.546 102.064 116.344 102.416C116.152 102.768 116.056 103.195 116.056 103.696C116.056 104.197 116.152 104.624 116.344 104.976C116.546 105.328 116.818 105.6 117.16 105.792C117.501 105.984 117.885 106.08 118.312 106.08C118.706 106.08 119.069 105.989 119.4 105.808C119.741 105.616 120.024 105.312 120.248 104.896L122.184 105.952C121.864 106.645 121.368 107.184 120.696 107.568C120.024 107.941 119.234 108.128 118.328 108.128ZM125.638 106.24L125.702 103.2L129.718 99.392H132.694L128.838 103.312L127.542 104.368L125.638 106.24ZM123.574 108V96.128H126.07V108H123.574ZM129.99 108L127.078 104.384L128.646 102.448L133.014 108H129.99ZM138.049 108.128C137.068 108.128 136.204 107.936 135.457 107.552C134.721 107.168 134.15 106.645 133.745 105.984C133.34 105.312 133.137 104.549 133.137 103.696C133.137 102.832 133.334 102.069 133.729 101.408C134.134 100.736 134.684 100.213 135.377 99.84C136.07 99.456 136.854 99.264 137.729 99.264C138.572 99.264 139.329 99.4453 140.001 99.808C140.684 100.16 141.222 100.672 141.617 101.344C142.012 102.005 142.209 102.8 142.209 103.728C142.209 103.824 142.204 103.936 142.193 104.064C142.182 104.181 142.172 104.293 142.161 104.4H135.169V102.944H140.849L139.889 103.376C139.889 102.928 139.798 102.539 139.617 102.208C139.436 101.877 139.185 101.621 138.865 101.44C138.545 101.248 138.172 101.152 137.745 101.152C137.318 101.152 136.94 101.248 136.609 101.44C136.289 101.621 136.038 101.883 135.857 102.224C135.676 102.555 135.585 102.949 135.585 103.408V103.792C135.585 104.261 135.686 104.677 135.889 105.04C136.102 105.392 136.396 105.664 136.769 105.856C137.153 106.037 137.601 106.128 138.113 106.128C138.572 106.128 138.972 106.059 139.313 105.92C139.665 105.781 139.985 105.573 140.273 105.296L141.601 106.736C141.206 107.184 140.71 107.531 140.113 107.776C139.516 108.011 138.828 108.128 138.049 108.128ZM147.391 108.128C146.377 108.128 145.588 107.872 145.023 107.36C144.457 106.837 144.175 106.064 144.175 105.04V97.488H146.671V105.008C146.671 105.371 146.767 105.653 146.959 105.856C147.151 106.048 147.412 106.144 147.743 106.144C148.137 106.144 148.473 106.037 148.751 105.824L149.423 107.584C149.167 107.765 148.857 107.904 148.495 108C148.143 108.085 147.775 108.128 147.391 108.128ZM142.847 101.504V99.584H148.815V101.504H142.847ZM153.72 108.128C152.984 108.128 152.275 108.043 151.592 107.872C150.92 107.691 150.387 107.467 149.992 107.2L150.824 105.408C151.219 105.653 151.683 105.856 152.216 106.016C152.76 106.165 153.293 106.24 153.816 106.24C154.392 106.24 154.797 106.171 155.032 106.032C155.277 105.893 155.4 105.701 155.4 105.456C155.4 105.253 155.304 105.104 155.112 105.008C154.931 104.901 154.685 104.821 154.376 104.768C154.067 104.715 153.725 104.661 153.352 104.608C152.989 104.555 152.621 104.485 152.248 104.4C151.875 104.304 151.533 104.165 151.224 103.984C150.915 103.803 150.664 103.557 150.472 103.248C150.291 102.939 150.2 102.539 150.2 102.048C150.2 101.504 150.355 101.024 150.664 100.608C150.984 100.192 151.443 99.8667 152.04 99.632C152.637 99.3867 153.352 99.264 154.184 99.264C154.771 99.264 155.368 99.328 155.976 99.456C156.584 99.584 157.091 99.7707 157.496 100.016L156.664 101.792C156.248 101.547 155.827 101.381 155.4 101.296C154.984 101.2 154.579 101.152 154.184 101.152C153.629 101.152 153.224 101.227 152.968 101.376C152.712 101.525 152.584 101.717 152.584 101.952C152.584 102.165 152.675 102.325 152.856 102.432C153.048 102.539 153.299 102.624 153.608 102.688C153.917 102.752 154.253 102.811 154.616 102.864C154.989 102.907 155.363 102.976 155.736 103.072C156.109 103.168 156.445 103.307 156.744 103.488C157.053 103.659 157.304 103.899 157.496 104.208C157.688 104.507 157.784 104.901 157.784 105.392C157.784 105.925 157.624 106.4 157.304 106.816C156.984 107.221 156.52 107.541 155.912 107.776C155.315 108.011 154.584 108.128 153.72 108.128Z" fill="#030522" />
                    <path d="M31.47 154V144.2H35.292C36.1507 144.2 36.8833 144.335 37.49 144.606C38.0967 144.877 38.5633 145.269 38.89 145.782C39.2167 146.295 39.38 146.907 39.38 147.616C39.38 148.325 39.2167 148.937 38.89 149.45C38.5633 149.954 38.0967 150.346 37.49 150.626C36.8833 150.897 36.1507 151.032 35.292 151.032H32.24L32.87 150.374V154H31.47ZM32.87 150.514L32.24 149.814H35.25C36.146 149.814 36.8227 149.623 37.28 149.24C37.7467 148.857 37.98 148.316 37.98 147.616C37.98 146.916 37.7467 146.375 37.28 145.992C36.8227 145.609 36.146 145.418 35.25 145.418H32.24L32.87 144.718V150.514ZM45.7784 154V152.432L45.7084 152.138V149.464C45.7084 148.895 45.5404 148.456 45.2044 148.148C44.8778 147.831 44.3831 147.672 43.7204 147.672C43.2818 147.672 42.8524 147.747 42.4324 147.896C42.0124 148.036 41.6578 148.227 41.3684 148.47L40.8084 147.462C41.1911 147.154 41.6484 146.921 42.1804 146.762C42.7218 146.594 43.2864 146.51 43.8744 146.51C44.8918 146.51 45.6758 146.757 46.2264 147.252C46.7771 147.747 47.0524 148.503 47.0524 149.52V154H45.7784ZM43.3424 154.084C42.7918 154.084 42.3064 153.991 41.8864 153.804C41.4758 153.617 41.1584 153.361 40.9344 153.034C40.7104 152.698 40.5984 152.32 40.5984 151.9C40.5984 151.499 40.6918 151.135 40.8784 150.808C41.0744 150.481 41.3871 150.22 41.8164 150.024C42.2551 149.828 42.8431 149.73 43.5804 149.73H45.9324V150.696H43.6364C42.9644 150.696 42.5118 150.808 42.2784 151.032C42.0451 151.256 41.9284 151.527 41.9284 151.844C41.9284 152.208 42.0731 152.502 42.3624 152.726C42.6518 152.941 43.0531 153.048 43.5664 153.048C44.0704 153.048 44.5091 152.936 44.8824 152.712C45.2651 152.488 45.5404 152.161 45.7084 151.732L45.9744 152.656C45.7971 153.095 45.4844 153.445 45.0364 153.706C44.5884 153.958 44.0238 154.084 43.3424 154.084ZM51.6676 154.084C51.0516 154.084 50.4636 154 49.9036 153.832C49.353 153.664 48.919 153.459 48.6016 153.216L49.1616 152.152C49.479 152.367 49.871 152.549 50.3376 152.698C50.8043 152.847 51.2803 152.922 51.7656 152.922C52.391 152.922 52.839 152.833 53.1096 152.656C53.3896 152.479 53.5296 152.231 53.5296 151.914C53.5296 151.681 53.4456 151.499 53.2776 151.368C53.1096 151.237 52.8856 151.139 52.6056 151.074C52.335 151.009 52.0316 150.953 51.6956 150.906C51.3596 150.85 51.0236 150.785 50.6876 150.71C50.3516 150.626 50.0436 150.514 49.7636 150.374C49.4836 150.225 49.2596 150.024 49.0916 149.772C48.9236 149.511 48.8396 149.165 48.8396 148.736C48.8396 148.288 48.9656 147.896 49.2176 147.56C49.4696 147.224 49.8243 146.967 50.2816 146.79C50.7483 146.603 51.299 146.51 51.9336 146.51C52.419 146.51 52.909 146.571 53.4036 146.692C53.9076 146.804 54.3183 146.967 54.6356 147.182L54.0616 148.246C53.7256 148.022 53.3756 147.868 53.0116 147.784C52.6476 147.7 52.2836 147.658 51.9196 147.658C51.3316 147.658 50.893 147.756 50.6036 147.952C50.3143 148.139 50.1696 148.381 50.1696 148.68C50.1696 148.932 50.2536 149.128 50.4216 149.268C50.599 149.399 50.823 149.501 51.0936 149.576C51.3736 149.651 51.6816 149.716 52.0176 149.772C52.3536 149.819 52.6896 149.884 53.0256 149.968C53.3616 150.043 53.665 150.15 53.9356 150.29C54.2156 150.43 54.4396 150.626 54.6076 150.878C54.785 151.13 54.8736 151.466 54.8736 151.886C54.8736 152.334 54.743 152.721 54.4816 153.048C54.2203 153.375 53.8516 153.631 53.3756 153.818C52.8996 153.995 52.3303 154.084 51.6676 154.084ZM58.6813 154.084C58.0653 154.084 57.4773 154 56.9173 153.832C56.3666 153.664 55.9326 153.459 55.6153 153.216L56.1753 152.152C56.4926 152.367 56.8846 152.549 57.3513 152.698C57.818 152.847 58.294 152.922 58.7793 152.922C59.4046 152.922 59.8526 152.833 60.1233 152.656C60.4033 152.479 60.5433 152.231 60.5433 151.914C60.5433 151.681 60.4593 151.499 60.2913 151.368C60.1233 151.237 59.8993 151.139 59.6193 151.074C59.3486 151.009 59.0453 150.953 58.7093 150.906C58.3733 150.85 58.0373 150.785 57.7013 150.71C57.3653 150.626 57.0573 150.514 56.7773 150.374C56.4973 150.225 56.2733 150.024 56.1053 149.772C55.9373 149.511 55.8533 149.165 55.8533 148.736C55.8533 148.288 55.9793 147.896 56.2313 147.56C56.4833 147.224 56.838 146.967 57.2953 146.79C57.762 146.603 58.3126 146.51 58.9473 146.51C59.4326 146.51 59.9226 146.571 60.4173 146.692C60.9213 146.804 61.332 146.967 61.6493 147.182L61.0753 148.246C60.7393 148.022 60.3893 147.868 60.0253 147.784C59.6613 147.7 59.2973 147.658 58.9333 147.658C58.3453 147.658 57.9066 147.756 57.6173 147.952C57.328 148.139 57.1833 148.381 57.1833 148.68C57.1833 148.932 57.2673 149.128 57.4353 149.268C57.6126 149.399 57.8366 149.501 58.1073 149.576C58.3873 149.651 58.6953 149.716 59.0313 149.772C59.3673 149.819 59.7033 149.884 60.0393 149.968C60.3753 150.043 60.6786 150.15 60.9493 150.29C61.2293 150.43 61.4533 150.626 61.6213 150.878C61.7986 151.13 61.8873 151.466 61.8873 151.886C61.8873 152.334 61.7566 152.721 61.4953 153.048C61.234 153.375 60.8653 153.631 60.3893 153.818C59.9133 153.995 59.344 154.084 58.6813 154.084ZM66.871 154.084C66.0776 154.084 65.3776 153.921 64.771 153.594C64.1736 153.267 63.707 152.819 63.371 152.25C63.0443 151.681 62.881 151.027 62.881 150.29C62.881 149.553 63.0396 148.899 63.357 148.33C63.6836 147.761 64.127 147.317 64.687 147C65.2563 146.673 65.8956 146.51 66.605 146.51C67.3236 146.51 67.9583 146.669 68.509 146.986C69.0596 147.303 69.489 147.751 69.797 148.33C70.1143 148.899 70.273 149.567 70.273 150.332C70.273 150.388 70.2683 150.453 70.259 150.528C70.259 150.603 70.2543 150.673 70.245 150.738H63.931V149.772H69.545L68.999 150.108C69.0083 149.632 68.9103 149.207 68.705 148.834C68.4996 148.461 68.215 148.171 67.851 147.966C67.4963 147.751 67.081 147.644 66.605 147.644C66.1383 147.644 65.723 147.751 65.359 147.966C64.995 148.171 64.7103 148.465 64.505 148.848C64.2996 149.221 64.197 149.651 64.197 150.136V150.36C64.197 150.855 64.309 151.298 64.533 151.69C64.7663 152.073 65.0883 152.371 65.499 152.586C65.9096 152.801 66.381 152.908 66.913 152.908C67.3516 152.908 67.7483 152.833 68.103 152.684C68.467 152.535 68.7843 152.311 69.055 152.012L69.797 152.88C69.461 153.272 69.041 153.571 68.537 153.776C68.0423 153.981 67.487 154.084 66.871 154.084ZM76.1012 146.51C76.7079 146.51 77.2399 146.627 77.6972 146.86C78.1639 147.093 78.5279 147.448 78.7892 147.924C79.0506 148.4 79.1812 149.002 79.1812 149.73V154H77.8372V149.884C77.8372 149.165 77.6599 148.624 77.3052 148.26C76.9599 147.896 76.4699 147.714 75.8352 147.714C75.3592 147.714 74.9439 147.807 74.5892 147.994C74.2346 148.181 73.9592 148.456 73.7632 148.82C73.5766 149.184 73.4832 149.637 73.4832 150.178V154H72.1392V146.58H73.4272V148.582L73.2172 148.05C73.4599 147.565 73.8332 147.187 74.3372 146.916C74.8412 146.645 75.4292 146.51 76.1012 146.51ZM84.9165 156.8C84.2352 156.8 83.5725 156.702 82.9285 156.506C82.2939 156.319 81.7759 156.049 81.3745 155.694L82.0185 154.658C82.3639 154.957 82.7885 155.19 83.2925 155.358C83.7965 155.535 84.3239 155.624 84.8745 155.624C85.7519 155.624 86.3959 155.419 86.8065 155.008C87.2172 154.597 87.4225 153.972 87.4225 153.132V151.564L87.5625 150.094L87.4925 148.61V146.58H88.7665V152.992C88.7665 154.299 88.4399 155.26 87.7865 155.876C87.1332 156.492 86.1765 156.8 84.9165 156.8ZM84.7485 153.692C84.0299 153.692 83.3859 153.543 82.8165 153.244C82.2565 152.936 81.8085 152.511 81.4725 151.97C81.1459 151.429 80.9825 150.803 80.9825 150.094C80.9825 149.375 81.1459 148.75 81.4725 148.218C81.8085 147.677 82.2565 147.257 82.8165 146.958C83.3859 146.659 84.0299 146.51 84.7485 146.51C85.3832 146.51 85.9619 146.641 86.4845 146.902C87.0072 147.154 87.4225 147.546 87.7305 148.078C88.0479 148.61 88.2065 149.282 88.2065 150.094C88.2065 150.897 88.0479 151.564 87.7305 152.096C87.4225 152.628 87.0072 153.029 86.4845 153.3C85.9619 153.561 85.3832 153.692 84.7485 153.692ZM84.9025 152.516C85.3972 152.516 85.8359 152.413 86.2185 152.208C86.6012 152.003 86.8999 151.718 87.1145 151.354C87.3385 150.99 87.4505 150.57 87.4505 150.094C87.4505 149.618 87.3385 149.198 87.1145 148.834C86.8999 148.47 86.6012 148.19 86.2185 147.994C85.8359 147.789 85.3972 147.686 84.9025 147.686C84.4079 147.686 83.9645 147.789 83.5725 147.994C83.1899 148.19 82.8865 148.47 82.6625 148.834C82.4479 149.198 82.3405 149.618 82.3405 150.094C82.3405 150.57 82.4479 150.99 82.6625 151.354C82.8865 151.718 83.1899 152.003 83.5725 152.208C83.9645 152.413 84.4079 152.516 84.9025 152.516ZM94.6385 154.084C93.8452 154.084 93.1452 153.921 92.5385 153.594C91.9412 153.267 91.4745 152.819 91.1385 152.25C90.8119 151.681 90.6485 151.027 90.6485 150.29C90.6485 149.553 90.8072 148.899 91.1245 148.33C91.4512 147.761 91.8945 147.317 92.4545 147C93.0239 146.673 93.6632 146.51 94.3725 146.51C95.0912 146.51 95.7259 146.669 96.2765 146.986C96.8272 147.303 97.2565 147.751 97.5645 148.33C97.8819 148.899 98.0405 149.567 98.0405 150.332C98.0405 150.388 98.0359 150.453 98.0265 150.528C98.0265 150.603 98.0219 150.673 98.0125 150.738H91.6985V149.772H97.3125L96.7665 150.108C96.7759 149.632 96.6779 149.207 96.4725 148.834C96.2672 148.461 95.9825 148.171 95.6185 147.966C95.2639 147.751 94.8485 147.644 94.3725 147.644C93.9059 147.644 93.4905 147.751 93.1265 147.966C92.7625 148.171 92.4779 148.465 92.2725 148.848C92.0672 149.221 91.9645 149.651 91.9645 150.136V150.36C91.9645 150.855 92.0765 151.298 92.3005 151.69C92.5339 152.073 92.8559 152.371 93.2665 152.586C93.6772 152.801 94.1485 152.908 94.6805 152.908C95.1192 152.908 95.5159 152.833 95.8705 152.684C96.2345 152.535 96.5519 152.311 96.8225 152.012L97.5645 152.88C97.2285 153.272 96.8085 153.571 96.3045 153.776C95.8099 153.981 95.2545 154.084 94.6385 154.084ZM99.9068 154V146.58H101.195V148.596L101.069 148.092C101.274 147.579 101.619 147.187 102.105 146.916C102.59 146.645 103.187 146.51 103.897 146.51V147.812C103.841 147.803 103.785 147.798 103.729 147.798C103.682 147.798 103.635 147.798 103.589 147.798C102.87 147.798 102.301 148.013 101.881 148.442C101.461 148.871 101.251 149.492 101.251 150.304V154H99.9068Z" fill="#9CA3AF" />
                    <path d="M31.504 182V170.8H36.112C37.104 170.8 37.952 170.96 38.656 171.28C39.3707 171.6 39.92 172.059 40.304 172.656C40.688 173.253 40.88 173.963 40.88 174.784C40.88 175.605 40.688 176.315 40.304 176.912C39.92 177.499 39.3707 177.952 38.656 178.272C37.952 178.581 37.104 178.736 36.112 178.736H32.656L33.584 177.792V182H31.504ZM38.832 182L36 177.936H38.224L41.072 182H38.832ZM33.584 178.016L32.656 177.024H36.016C36.9333 177.024 37.6213 176.827 38.08 176.432C38.5493 176.037 38.784 175.488 38.784 174.784C38.784 174.069 38.5493 173.52 38.08 173.136C37.6213 172.752 36.9333 172.56 36.016 172.56H32.656L33.584 171.536V178.016ZM48.201 182V180.272L48.089 179.904V176.88C48.089 176.293 47.913 175.84 47.561 175.52C47.209 175.189 46.6757 175.024 45.961 175.024C45.481 175.024 45.0063 175.099 44.537 175.248C44.0783 175.397 43.689 175.605 43.369 175.872L42.585 174.416C43.0437 174.064 43.5877 173.803 44.217 173.632C44.857 173.451 45.5183 173.36 46.201 173.36C47.4383 173.36 48.393 173.659 49.065 174.256C49.7477 174.843 50.089 175.755 50.089 176.992V182H48.201ZM45.513 182.112C44.873 182.112 44.313 182.005 43.833 181.792C43.353 181.568 42.9797 181.264 42.713 180.88C42.457 180.485 42.329 180.043 42.329 179.552C42.329 179.072 42.441 178.64 42.665 178.256C42.8997 177.872 43.2783 177.568 43.801 177.344C44.3237 177.12 45.017 177.008 45.881 177.008H48.361V178.336H46.025C45.3423 178.336 44.8837 178.448 44.649 178.672C44.4143 178.885 44.297 179.152 44.297 179.472C44.297 179.835 44.441 180.123 44.729 180.336C45.017 180.549 45.417 180.656 45.929 180.656C46.4197 180.656 46.857 180.544 47.241 180.32C47.6357 180.096 47.9183 179.765 48.089 179.328L48.425 180.528C48.233 181.029 47.8863 181.419 47.385 181.696C46.8943 181.973 46.2703 182.112 45.513 182.112ZM51.7758 185.216C51.4024 185.216 51.0504 185.173 50.7197 185.088C50.3784 185.013 50.0904 184.891 49.8557 184.72L50.4317 183.232C50.7411 183.456 51.1304 183.568 51.5998 183.568C51.9624 183.568 52.2451 183.451 52.4478 183.216C52.6504 182.992 52.7518 182.656 52.7518 182.208V173.456H54.7518V182.16C54.7518 183.099 54.4904 183.84 53.9678 184.384C53.4558 184.939 52.7251 185.216 51.7758 185.216ZM53.7438 172.048C53.3704 172.048 53.0611 171.931 52.8158 171.696C52.5811 171.461 52.4638 171.179 52.4638 170.848C52.4638 170.507 52.5811 170.224 52.8158 170C53.0611 169.765 53.3704 169.648 53.7438 169.648C54.1171 169.648 54.4211 169.76 54.6558 169.984C54.9011 170.197 55.0238 170.469 55.0238 170.8C55.0238 171.152 54.9064 171.451 54.6718 171.696C54.4371 171.931 54.1278 172.048 53.7438 172.048ZM60.9905 182.112C60.2652 182.112 59.6252 181.979 59.0705 181.712C58.5158 181.435 58.0838 181.019 57.7745 180.464C57.4652 179.899 57.3105 179.189 57.3105 178.336V173.456H59.3105V178.064C59.3105 178.832 59.4812 179.408 59.8225 179.792C60.1745 180.165 60.6705 180.352 61.3105 180.352C61.7798 180.352 62.1852 180.256 62.5265 180.064C62.8785 179.872 63.1505 179.584 63.3425 179.2C63.5452 178.816 63.6465 178.341 63.6465 177.776V173.456H65.6465V182H63.7425V179.696L64.0785 180.4C63.7905 180.955 63.3692 181.381 62.8145 181.68C62.2598 181.968 61.6518 182.112 60.9905 182.112ZM72.879 182V170.8H74.591L79.487 178.976H78.591L83.407 170.8H85.119L85.135 182H83.167L83.151 173.888H83.567L79.471 180.72H78.543L74.383 173.888H74.863V182H72.879ZM91.5843 182.112C90.8589 182.112 90.2189 181.979 89.6643 181.712C89.1096 181.435 88.6776 181.019 88.3683 180.464C88.0589 179.899 87.9043 179.189 87.9043 178.336V173.456H89.9043V178.064C89.9043 178.832 90.0749 179.408 90.4163 179.792C90.7683 180.165 91.2643 180.352 91.9043 180.352C92.3736 180.352 92.7789 180.256 93.1203 180.064C93.4723 179.872 93.7443 179.584 93.9363 179.2C94.1389 178.816 94.2403 178.341 94.2403 177.776V173.456H96.2403V182H94.3363V179.696L94.6723 180.4C94.3843 180.955 93.9629 181.381 93.4083 181.68C92.8536 181.968 92.2456 182.112 91.5843 182.112ZM98.8589 182V170.128H100.859V182H98.8589ZM103.484 182V170.128H105.484V182H103.484ZM113.373 182V180.272L113.261 179.904V176.88C113.261 176.293 113.085 175.84 112.733 175.52C112.381 175.189 111.848 175.024 111.133 175.024C110.653 175.024 110.178 175.099 109.709 175.248C109.25 175.397 108.861 175.605 108.541 175.872L107.757 174.416C108.216 174.064 108.76 173.803 109.389 173.632C110.029 173.451 110.69 173.36 111.373 173.36C112.61 173.36 113.565 173.659 114.237 174.256C114.92 174.843 115.261 175.755 115.261 176.992V182H113.373ZM110.685 182.112C110.045 182.112 109.485 182.005 109.005 181.792C108.525 181.568 108.152 181.264 107.885 180.88C107.629 180.485 107.501 180.043 107.501 179.552C107.501 179.072 107.613 178.64 107.837 178.256C108.072 177.872 108.45 177.568 108.973 177.344C109.496 177.12 110.189 177.008 111.053 177.008H113.533V178.336H111.197C110.514 178.336 110.056 178.448 109.821 178.672C109.586 178.885 109.469 179.152 109.469 179.472C109.469 179.835 109.613 180.123 109.901 180.336C110.189 180.549 110.589 180.656 111.101 180.656C111.592 180.656 112.029 180.544 112.413 180.32C112.808 180.096 113.09 179.765 113.261 179.328L113.597 180.528C113.405 181.029 113.058 181.419 112.557 181.696C112.066 181.973 111.442 182.112 110.685 182.112ZM122.676 173.36C123.358 173.36 123.966 173.493 124.5 173.76C125.044 174.027 125.47 174.437 125.78 174.992C126.089 175.536 126.244 176.24 126.244 177.104V182H124.244V177.36C124.244 176.603 124.062 176.037 123.7 175.664C123.348 175.291 122.852 175.104 122.212 175.104C121.742 175.104 121.326 175.2 120.964 175.392C120.601 175.584 120.318 175.872 120.116 176.256C119.924 176.629 119.828 177.104 119.828 177.68V182H117.828V170.128H119.828V175.76L119.396 175.056C119.694 174.512 120.126 174.096 120.692 173.808C121.268 173.509 121.929 173.36 122.676 173.36Z" fill="#030522" />
                    <path d="M204.47 154V144.2H208.6C209.645 144.2 210.565 144.405 211.358 144.816C212.161 145.227 212.781 145.801 213.22 146.538C213.668 147.275 213.892 148.129 213.892 149.1C213.892 150.071 213.668 150.925 213.22 151.662C212.781 152.399 212.161 152.973 211.358 153.384C210.565 153.795 209.645 154 208.6 154H204.47ZM205.87 152.782H208.516C209.328 152.782 210.028 152.628 210.616 152.32C211.213 152.012 211.675 151.583 212.002 151.032C212.329 150.472 212.492 149.828 212.492 149.1C212.492 148.363 212.329 147.719 212.002 147.168C211.675 146.617 211.213 146.188 210.616 145.88C210.028 145.572 209.328 145.418 208.516 145.418H205.87V152.782ZM220.446 154V152.432L220.376 152.138V149.464C220.376 148.895 220.208 148.456 219.872 148.148C219.546 147.831 219.051 147.672 218.388 147.672C217.95 147.672 217.52 147.747 217.1 147.896C216.68 148.036 216.326 148.227 216.036 148.47L215.476 147.462C215.859 147.154 216.316 146.921 216.848 146.762C217.39 146.594 217.954 146.51 218.542 146.51C219.56 146.51 220.344 146.757 220.894 147.252C221.445 147.747 221.72 148.503 221.72 149.52V154H220.446ZM218.01 154.084C217.46 154.084 216.974 153.991 216.554 153.804C216.144 153.617 215.826 153.361 215.602 153.034C215.378 152.698 215.266 152.32 215.266 151.9C215.266 151.499 215.36 151.135 215.546 150.808C215.742 150.481 216.055 150.22 216.484 150.024C216.923 149.828 217.511 149.73 218.248 149.73H220.6V150.696H218.304C217.632 150.696 217.18 150.808 216.946 151.032C216.713 151.256 216.596 151.527 216.596 151.844C216.596 152.208 216.741 152.502 217.03 152.726C217.32 152.941 217.721 153.048 218.234 153.048C218.738 153.048 219.177 152.936 219.55 152.712C219.933 152.488 220.208 152.161 220.376 151.732L220.642 152.656C220.465 153.095 220.152 153.445 219.704 153.706C219.256 153.958 218.692 154.084 218.01 154.084ZM226.756 154.084C226.009 154.084 225.43 153.883 225.02 153.482C224.609 153.081 224.404 152.507 224.404 151.76V144.956H225.748V151.704C225.748 152.105 225.846 152.413 226.042 152.628C226.247 152.843 226.536 152.95 226.91 152.95C227.33 152.95 227.68 152.833 227.96 152.6L228.38 153.566C228.174 153.743 227.927 153.874 227.638 153.958C227.358 154.042 227.064 154.084 226.756 154.084ZM223.144 147.686V146.58H227.876V147.686H223.144ZM233.062 154.084C232.269 154.084 231.569 153.921 230.962 153.594C230.365 153.267 229.898 152.819 229.562 152.25C229.236 151.681 229.072 151.027 229.072 150.29C229.072 149.553 229.231 148.899 229.548 148.33C229.875 147.761 230.318 147.317 230.878 147C231.448 146.673 232.087 146.51 232.796 146.51C233.515 146.51 234.15 146.669 234.7 146.986C235.251 147.303 235.68 147.751 235.988 148.33C236.306 148.899 236.464 149.567 236.464 150.332C236.464 150.388 236.46 150.453 236.45 150.528C236.45 150.603 236.446 150.673 236.436 150.738H230.122V149.772H235.736L235.19 150.108C235.2 149.632 235.102 149.207 234.896 148.834C234.691 148.461 234.406 148.171 234.042 147.966C233.688 147.751 233.272 147.644 232.796 147.644C232.33 147.644 231.914 147.751 231.55 147.966C231.186 148.171 230.902 148.465 230.696 148.848C230.491 149.221 230.388 149.651 230.388 150.136V150.36C230.388 150.855 230.5 151.298 230.724 151.69C230.958 152.073 231.28 152.371 231.69 152.586C232.101 152.801 232.572 152.908 233.104 152.908C233.543 152.908 233.94 152.833 234.294 152.684C234.658 152.535 234.976 152.311 235.246 152.012L235.988 152.88C235.652 153.272 235.232 153.571 234.728 153.776C234.234 153.981 233.678 154.084 233.062 154.084Z" fill="#9CA3AF" />
                    <path d="M203.56 182V180.608L208.008 176.384C208.381 176.032 208.659 175.723 208.84 175.456C209.021 175.189 209.139 174.944 209.192 174.72C209.256 174.485 209.288 174.267 209.288 174.064C209.288 173.552 209.112 173.157 208.76 172.88C208.408 172.592 207.891 172.448 207.208 172.448C206.664 172.448 206.168 172.544 205.72 172.736C205.283 172.928 204.904 173.221 204.584 173.616L203.128 172.496C203.565 171.909 204.152 171.456 204.888 171.136C205.635 170.805 206.467 170.64 207.384 170.64C208.195 170.64 208.899 170.773 209.496 171.04C210.104 171.296 210.568 171.664 210.888 172.144C211.219 172.624 211.384 173.195 211.384 173.856C211.384 174.219 211.336 174.581 211.24 174.944C211.144 175.296 210.963 175.669 210.696 176.064C210.429 176.459 210.04 176.901 209.528 177.392L205.704 181.024L205.272 180.24H211.816V182H203.56ZM217.689 182.16C216.803 182.16 216.003 181.936 215.289 181.488C214.585 181.04 214.03 180.389 213.625 179.536C213.219 178.672 213.017 177.627 213.017 176.4C213.017 175.173 213.219 174.133 213.625 173.28C214.03 172.416 214.585 171.76 215.289 171.312C216.003 170.864 216.803 170.64 217.689 170.64C218.585 170.64 219.385 170.864 220.089 171.312C220.793 171.76 221.347 172.416 221.753 173.28C222.169 174.133 222.377 175.173 222.377 176.4C222.377 177.627 222.169 178.672 221.753 179.536C221.347 180.389 220.793 181.04 220.089 181.488C219.385 181.936 218.585 182.16 217.689 182.16ZM217.689 180.352C218.211 180.352 218.665 180.213 219.049 179.936C219.433 179.648 219.731 179.211 219.945 178.624C220.169 178.037 220.281 177.296 220.281 176.4C220.281 175.493 220.169 174.752 219.945 174.176C219.731 173.589 219.433 173.157 219.049 172.88C218.665 172.592 218.211 172.448 217.689 172.448C217.187 172.448 216.739 172.592 216.345 172.88C215.961 173.157 215.657 173.589 215.433 174.176C215.219 174.752 215.113 175.493 215.113 176.4C215.113 177.296 215.219 178.037 215.433 178.624C215.657 179.211 215.961 179.648 216.345 179.936C216.739 180.213 217.187 180.352 217.689 180.352ZM229.004 182V170.8H230.716L237.74 179.424H236.892V170.8H238.956V182H237.244L230.22 173.376H231.068V182H229.004ZM245.605 182.112C244.73 182.112 243.952 181.925 243.269 181.552C242.586 181.168 242.048 180.645 241.653 179.984C241.258 179.323 241.061 178.571 241.061 177.728C241.061 176.875 241.258 176.123 241.653 175.472C242.048 174.811 242.586 174.293 243.269 173.92C243.952 173.547 244.73 173.36 245.605 173.36C246.49 173.36 247.274 173.547 247.957 173.92C248.65 174.293 249.189 174.805 249.573 175.456C249.968 176.107 250.165 176.864 250.165 177.728C250.165 178.571 249.968 179.323 249.573 179.984C249.189 180.645 248.65 181.168 247.957 181.552C247.274 181.925 246.49 182.112 245.605 182.112ZM245.605 180.4C246.096 180.4 246.533 180.293 246.917 180.08C247.301 179.867 247.6 179.557 247.813 179.152C248.037 178.747 248.149 178.272 248.149 177.728C248.149 177.173 248.037 176.699 247.813 176.304C247.6 175.899 247.301 175.589 246.917 175.376C246.533 175.163 246.101 175.056 245.621 175.056C245.13 175.056 244.693 175.163 244.309 175.376C243.936 175.589 243.637 175.899 243.413 176.304C243.189 176.699 243.077 177.173 243.077 177.728C243.077 178.272 243.189 178.747 243.413 179.152C243.637 179.557 243.936 179.867 244.309 180.08C244.693 180.293 245.125 180.4 245.605 180.4ZM254.115 182L250.451 173.456H252.531L255.683 180.992H254.659L257.923 173.456H259.843L256.179 182H254.115ZM264.763 182V180.608L269.211 176.384C269.584 176.032 269.862 175.723 270.043 175.456C270.224 175.189 270.342 174.944 270.395 174.72C270.459 174.485 270.491 174.267 270.491 174.064C270.491 173.552 270.315 173.157 269.963 172.88C269.611 172.592 269.094 172.448 268.411 172.448C267.867 172.448 267.371 172.544 266.923 172.736C266.486 172.928 266.107 173.221 265.787 173.616L264.331 172.496C264.768 171.909 265.355 171.456 266.091 171.136C266.838 170.805 267.67 170.64 268.587 170.64C269.398 170.64 270.102 170.773 270.699 171.04C271.307 171.296 271.771 171.664 272.091 172.144C272.422 172.624 272.587 173.195 272.587 173.856C272.587 174.219 272.539 174.581 272.443 174.944C272.347 175.296 272.166 175.669 271.899 176.064C271.632 176.459 271.243 176.901 270.731 177.392L266.907 181.024L266.475 180.24H273.019V182H264.763ZM278.892 182.16C278.006 182.16 277.206 181.936 276.492 181.488C275.788 181.04 275.233 180.389 274.828 179.536C274.422 178.672 274.22 177.627 274.22 176.4C274.22 175.173 274.422 174.133 274.828 173.28C275.233 172.416 275.788 171.76 276.492 171.312C277.206 170.864 278.006 170.64 278.892 170.64C279.788 170.64 280.588 170.864 281.292 171.312C281.996 171.76 282.55 172.416 282.956 173.28C283.372 174.133 283.58 175.173 283.58 176.4C283.58 177.627 283.372 178.672 282.956 179.536C282.55 180.389 281.996 181.04 281.292 181.488C280.588 181.936 279.788 182.16 278.892 182.16ZM278.892 180.352C279.414 180.352 279.868 180.213 280.252 179.936C280.636 179.648 280.934 179.211 281.148 178.624C281.372 178.037 281.484 177.296 281.484 176.4C281.484 175.493 281.372 174.752 281.148 174.176C280.934 173.589 280.636 173.157 280.252 172.88C279.868 172.592 279.414 172.448 278.892 172.448C278.39 172.448 277.942 172.592 277.548 172.88C277.164 173.157 276.86 173.589 276.636 174.176C276.422 174.752 276.316 175.493 276.316 176.4C276.316 177.296 276.422 178.037 276.636 178.624C276.86 179.211 277.164 179.648 277.548 179.936C277.942 180.213 278.39 180.352 278.892 180.352ZM284.826 182V180.608L289.274 176.384C289.647 176.032 289.924 175.723 290.106 175.456C290.287 175.189 290.404 174.944 290.458 174.72C290.522 174.485 290.554 174.267 290.554 174.064C290.554 173.552 290.378 173.157 290.026 172.88C289.674 172.592 289.156 172.448 288.474 172.448C287.93 172.448 287.434 172.544 286.986 172.736C286.548 172.928 286.17 173.221 285.85 173.616L284.394 172.496C284.831 171.909 285.418 171.456 286.154 171.136C286.9 170.805 287.732 170.64 288.65 170.64C289.46 170.64 290.164 170.773 290.762 171.04C291.37 171.296 291.834 171.664 292.154 172.144C292.484 172.624 292.65 173.195 292.65 173.856C292.65 174.219 292.602 174.581 292.506 174.944C292.41 175.296 292.228 175.669 291.962 176.064C291.695 176.459 291.306 176.901 290.794 177.392L286.97 181.024L286.538 180.24H293.082V182H284.826ZM294.138 182V180.608L298.586 176.384C298.959 176.032 299.237 175.723 299.418 175.456C299.599 175.189 299.717 174.944 299.77 174.72C299.834 174.485 299.866 174.267 299.866 174.064C299.866 173.552 299.69 173.157 299.338 172.88C298.986 172.592 298.469 172.448 297.786 172.448C297.242 172.448 296.746 172.544 296.298 172.736C295.861 172.928 295.482 173.221 295.162 173.616L293.706 172.496C294.143 171.909 294.73 171.456 295.466 171.136C296.213 170.805 297.045 170.64 297.962 170.64C298.773 170.64 299.477 170.773 300.074 171.04C300.682 171.296 301.146 171.664 301.466 172.144C301.797 172.624 301.962 173.195 301.962 173.856C301.962 174.219 301.914 174.581 301.818 174.944C301.722 175.296 301.541 175.669 301.274 176.064C301.007 176.459 300.618 176.901 300.106 177.392L296.282 181.024L295.85 180.24H302.394V182H294.138Z" fill="#030522" />
                    <path d="M32.73 214.834H37.784V216.038H32.73V214.834ZM32.87 220H31.47V210.2H38.386V211.418H32.87V220ZM40.1607 220V209.612H41.5047V220H40.1607ZM44.0709 220V212.58H45.4149V220H44.0709ZM44.7429 211.152C44.4815 211.152 44.2622 211.068 44.0849 210.9C43.9169 210.732 43.8329 210.527 43.8329 210.284C43.8329 210.032 43.9169 209.822 44.0849 209.654C44.2622 209.486 44.4815 209.402 44.7429 209.402C45.0042 209.402 45.2189 209.486 45.3869 209.654C45.5642 209.813 45.6529 210.013 45.6529 210.256C45.6529 210.508 45.5689 210.723 45.4009 210.9C45.2329 211.068 45.0135 211.152 44.7429 211.152ZM51.229 222.8C50.5477 222.8 49.885 222.702 49.241 222.506C48.6064 222.319 48.0884 222.049 47.687 221.694L48.331 220.658C48.6764 220.957 49.101 221.19 49.605 221.358C50.109 221.535 50.6364 221.624 51.187 221.624C52.0644 221.624 52.7084 221.419 53.119 221.008C53.5297 220.597 53.735 219.972 53.735 219.132V217.564L53.875 216.094L53.805 214.61V212.58H55.079V218.992C55.079 220.299 54.7524 221.26 54.099 221.876C53.4457 222.492 52.489 222.8 51.229 222.8ZM51.061 219.692C50.3424 219.692 49.6984 219.543 49.129 219.244C48.569 218.936 48.121 218.511 47.785 217.97C47.4584 217.429 47.295 216.803 47.295 216.094C47.295 215.375 47.4584 214.75 47.785 214.218C48.121 213.677 48.569 213.257 49.129 212.958C49.6984 212.659 50.3424 212.51 51.061 212.51C51.6957 212.51 52.2744 212.641 52.797 212.902C53.3197 213.154 53.735 213.546 54.043 214.078C54.3604 214.61 54.519 215.282 54.519 216.094C54.519 216.897 54.3604 217.564 54.043 218.096C53.735 218.628 53.3197 219.029 52.797 219.3C52.2744 219.561 51.6957 219.692 51.061 219.692ZM51.215 218.516C51.7097 218.516 52.1484 218.413 52.531 218.208C52.9137 218.003 53.2124 217.718 53.427 217.354C53.651 216.99 53.763 216.57 53.763 216.094C53.763 215.618 53.651 215.198 53.427 214.834C53.2124 214.47 52.9137 214.19 52.531 213.994C52.1484 213.789 51.7097 213.686 51.215 213.686C50.7204 213.686 50.277 213.789 49.885 213.994C49.5024 214.19 49.199 214.47 48.975 214.834C48.7604 215.198 48.653 215.618 48.653 216.094C48.653 216.57 48.7604 216.99 48.975 217.354C49.199 217.718 49.5024 218.003 49.885 218.208C50.277 218.413 50.7204 218.516 51.215 218.516ZM61.609 212.51C62.2157 212.51 62.7477 212.627 63.205 212.86C63.6717 213.093 64.0357 213.448 64.297 213.924C64.5584 214.4 64.689 215.002 64.689 215.73V220H63.345V215.884C63.345 215.165 63.1677 214.624 62.813 214.26C62.4677 213.896 61.9777 213.714 61.343 213.714C60.867 213.714 60.4517 213.807 60.097 213.994C59.7424 214.181 59.467 214.456 59.271 214.82C59.0844 215.184 58.991 215.637 58.991 216.178V220H57.647V209.612H58.991V214.582L58.725 214.05C58.9677 213.565 59.341 213.187 59.845 212.916C60.349 212.645 60.937 212.51 61.609 212.51ZM69.7243 220.084C68.9777 220.084 68.399 219.883 67.9883 219.482C67.5777 219.081 67.3723 218.507 67.3723 217.76V210.956H68.7163V217.704C68.7163 218.105 68.8143 218.413 69.0103 218.628C69.2157 218.843 69.505 218.95 69.8783 218.95C70.2983 218.95 70.6483 218.833 70.9283 218.6L71.3483 219.566C71.143 219.743 70.8957 219.874 70.6063 219.958C70.3263 220.042 70.0323 220.084 69.7243 220.084ZM66.1123 213.686V212.58H70.8443V213.686H66.1123Z" fill="#9CA3AF" />
                    <path d="M36.352 248L37.728 236.8H39.184L37.808 248H36.352ZM30.368 245.28V243.824H40.48V245.28H30.368ZM32.192 248L33.584 236.8H35.04L33.648 248H32.192ZM30.912 240.976V239.52H40.992L41.008 240.976H30.912ZM45.791 248.16C45.0017 248.16 44.2283 248.048 43.471 247.824C42.7243 247.589 42.095 247.269 41.583 246.864L42.463 245.248C42.8683 245.579 43.359 245.845 43.935 246.048C44.5217 246.251 45.1297 246.352 45.759 246.352C46.495 246.352 47.071 246.197 47.487 245.888C47.9137 245.579 48.127 245.163 48.127 244.64C48.127 244.288 48.0363 243.979 47.855 243.712C47.6843 243.445 47.375 243.243 46.927 243.104C46.4897 242.965 45.887 242.896 45.119 242.896H42.415L42.991 236.8H49.567V238.544H43.759L44.847 237.552L44.415 242.112L43.327 241.136H45.583C46.6923 241.136 47.583 241.285 48.255 241.584C48.9377 241.872 49.4337 242.277 49.743 242.8C50.063 243.312 50.223 243.899 50.223 244.56C50.223 245.211 50.063 245.808 49.743 246.352C49.423 246.896 48.9323 247.333 48.271 247.664C47.6203 247.995 46.7937 248.16 45.791 248.16ZM51.2628 245.456V244.016L56.7828 236.8H59.0068L53.5668 244.016L52.5268 243.696H61.4068V245.456H51.2628ZM57.4068 248V245.456L57.4708 243.696V241.44H59.4228V248H57.4068ZM66.9344 248.16C66.0064 248.16 65.201 248.021 64.5184 247.744C63.8357 247.467 63.3077 247.077 62.9344 246.576C62.561 246.064 62.3744 245.467 62.3744 244.784C62.3744 244.101 62.5557 243.525 62.9184 243.056C63.281 242.587 63.8037 242.229 64.4864 241.984C65.169 241.739 65.985 241.616 66.9344 241.616C67.8837 241.616 68.6997 241.739 69.3824 241.984C70.0757 242.229 70.6037 242.592 70.9664 243.072C71.3397 243.541 71.5264 244.112 71.5264 244.784C71.5264 245.467 71.3344 246.064 70.9504 246.576C70.577 247.077 70.0437 247.467 69.3504 247.744C68.6677 248.021 67.8624 248.16 66.9344 248.16ZM66.9344 246.528C67.7024 246.528 68.3104 246.368 68.7584 246.048C69.2064 245.728 69.4304 245.285 69.4304 244.72C69.4304 244.165 69.2064 243.728 68.7584 243.408C68.3104 243.088 67.7024 242.928 66.9344 242.928C66.1664 242.928 65.5637 243.088 65.1264 243.408C64.689 243.728 64.4704 244.165 64.4704 244.72C64.4704 245.285 64.689 245.728 65.1264 246.048C65.5637 246.368 66.1664 246.528 66.9344 246.528ZM66.9344 242.704C66.0704 242.704 65.329 242.592 64.7104 242.368C64.0917 242.133 63.6117 241.797 63.2704 241.36C62.9397 240.912 62.7744 240.379 62.7744 239.76C62.7744 239.12 62.945 238.571 63.2864 238.112C63.6384 237.643 64.129 237.28 64.7584 237.024C65.3877 236.768 66.113 236.64 66.9344 236.64C67.7664 236.64 68.497 236.768 69.1264 237.024C69.7557 237.28 70.2464 237.643 70.5984 238.112C70.9504 238.571 71.1264 239.12 71.1264 239.76C71.1264 240.379 70.9557 240.912 70.6144 241.36C70.2837 241.797 69.8037 242.133 69.1744 242.368C68.545 242.592 67.7984 242.704 66.9344 242.704ZM66.9344 241.424C67.5957 241.424 68.1184 241.285 68.5024 241.008C68.8864 240.72 69.0784 240.336 69.0784 239.856C69.0784 239.355 68.881 238.965 68.4864 238.688C68.0917 238.411 67.5744 238.272 66.9344 238.272C66.2944 238.272 65.7824 238.411 65.3984 238.688C65.0144 238.965 64.8224 239.355 64.8224 239.856C64.8224 240.336 65.009 240.72 65.3824 241.008C65.7664 241.285 66.2837 241.424 66.9344 241.424ZM77.7239 248.16C76.7105 248.16 75.8412 247.947 75.1159 247.52C74.3905 247.083 73.8359 246.453 73.4519 245.632C73.0679 244.811 72.8759 243.797 72.8759 242.592C72.8759 241.312 73.1052 240.229 73.5639 239.344C74.0332 238.459 74.6785 237.787 75.4999 237.328C76.3319 236.869 77.2865 236.64 78.3639 236.64C78.9292 236.64 79.4679 236.699 79.9799 236.816C80.5025 236.933 80.9452 237.115 81.3079 237.36L80.5399 238.928C80.2305 238.725 79.8945 238.587 79.5319 238.512C79.1799 238.427 78.8065 238.384 78.4119 238.384C77.3559 238.384 76.5185 238.709 75.8999 239.36C75.2812 240.011 74.9719 240.971 74.9719 242.24C74.9719 242.443 74.9772 242.683 74.9879 242.96C74.9985 243.227 75.0359 243.499 75.0999 243.776L74.4599 243.072C74.6519 242.635 74.9132 242.272 75.2439 241.984C75.5852 241.685 75.9852 241.461 76.4439 241.312C76.9132 241.163 77.4199 241.088 77.9639 241.088C78.6999 241.088 79.3559 241.232 79.9319 241.52C80.5079 241.797 80.9665 242.197 81.3079 242.72C81.6492 243.232 81.8199 243.835 81.8199 244.528C81.8199 245.264 81.6385 245.904 81.2759 246.448C80.9132 246.992 80.4225 247.413 79.8039 247.712C79.1852 248.011 78.4919 248.16 77.7239 248.16ZM77.6119 246.528C78.0385 246.528 78.4172 246.453 78.7479 246.304C79.0785 246.144 79.3345 245.92 79.5159 245.632C79.7079 245.344 79.8039 245.008 79.8039 244.624C79.8039 244.037 79.6012 243.573 79.1959 243.232C78.7905 242.891 78.2465 242.72 77.5639 242.72C77.1159 242.72 76.7212 242.805 76.3799 242.976C76.0492 243.136 75.7825 243.36 75.5799 243.648C75.3879 243.936 75.2919 244.267 75.2919 244.64C75.2919 244.981 75.3825 245.296 75.5639 245.584C75.7452 245.872 76.0065 246.101 76.3479 246.272C76.6999 246.443 77.1212 246.528 77.6119 246.528ZM87.7551 248.16C86.7418 248.16 85.8725 247.947 85.1471 247.52C84.4218 247.083 83.8671 246.453 83.4831 245.632C83.0991 244.811 82.9071 243.797 82.9071 242.592C82.9071 241.312 83.1365 240.229 83.5951 239.344C84.0645 238.459 84.7098 237.787 85.5311 237.328C86.3631 236.869 87.3178 236.64 88.3951 236.64C88.9605 236.64 89.4991 236.699 90.0111 236.816C90.5338 236.933 90.9765 237.115 91.3391 237.36L90.5711 238.928C90.2618 238.725 89.9258 238.587 89.5631 238.512C89.2111 238.427 88.8378 238.384 88.4431 238.384C87.3871 238.384 86.5498 238.709 85.9311 239.36C85.3125 240.011 85.0031 240.971 85.0031 242.24C85.0031 242.443 85.0085 242.683 85.0191 242.96C85.0298 243.227 85.0671 243.499 85.1311 243.776L84.4911 243.072C84.6831 242.635 84.9445 242.272 85.2751 241.984C85.6165 241.685 86.0165 241.461 86.4751 241.312C86.9445 241.163 87.4511 241.088 87.9951 241.088C88.7311 241.088 89.3871 241.232 89.9631 241.52C90.5391 241.797 90.9978 242.197 91.3391 242.72C91.6805 243.232 91.8511 243.835 91.8511 244.528C91.8511 245.264 91.6698 245.904 91.3071 246.448C90.9445 246.992 90.4538 247.413 89.8351 247.712C89.2165 248.011 88.5231 248.16 87.7551 248.16ZM87.6431 246.528C88.0698 246.528 88.4485 246.453 88.7791 246.304C89.1098 246.144 89.3658 245.92 89.5471 245.632C89.7391 245.344 89.8351 245.008 89.8351 244.624C89.8351 244.037 89.6325 243.573 89.2271 243.232C88.8218 242.891 88.2778 242.72 87.5951 242.72C87.1471 242.72 86.7525 242.805 86.4111 242.976C86.0805 243.136 85.8138 243.36 85.6111 243.648C85.4191 243.936 85.3231 244.267 85.3231 244.64C85.3231 244.981 85.4138 245.296 85.5951 245.584C85.7765 245.872 86.0378 246.101 86.3791 246.272C86.7311 246.443 87.1525 246.528 87.6431 246.528ZM92.7944 248V246.608L97.2424 242.384C97.6157 242.032 97.893 241.723 98.0744 241.456C98.2557 241.189 98.373 240.944 98.4264 240.72C98.4904 240.485 98.5224 240.267 98.5224 240.064C98.5224 239.552 98.3464 239.157 97.9944 238.88C97.6424 238.592 97.125 238.448 96.4424 238.448C95.8984 238.448 95.4024 238.544 94.9544 238.736C94.517 238.928 94.1384 239.221 93.8184 239.616L92.3624 238.496C92.7997 237.909 93.3864 237.456 94.1224 237.136C94.869 236.805 95.701 236.64 96.6184 236.64C97.429 236.64 98.133 236.773 98.7304 237.04C99.3384 237.296 99.8024 237.664 100.122 238.144C100.453 238.624 100.618 239.195 100.618 239.856C100.618 240.219 100.57 240.581 100.474 240.944C100.378 241.296 100.197 241.669 99.9304 242.064C99.6637 242.459 99.2744 242.901 98.7624 243.392L94.9384 247.024L94.5064 246.24H101.05V248H92.7944ZM107.099 248.16C106.086 248.16 105.216 247.947 104.491 247.52C103.766 247.083 103.211 246.453 102.827 245.632C102.443 244.811 102.251 243.797 102.251 242.592C102.251 241.312 102.48 240.229 102.939 239.344C103.408 238.459 104.054 237.787 104.875 237.328C105.707 236.869 106.662 236.64 107.739 236.64C108.304 236.64 108.843 236.699 109.355 236.816C109.878 236.933 110.32 237.115 110.683 237.36L109.915 238.928C109.606 238.725 109.27 238.587 108.907 238.512C108.555 238.427 108.182 238.384 107.787 238.384C106.731 238.384 105.894 238.709 105.275 239.36C104.656 240.011 104.347 240.971 104.347 242.24C104.347 242.443 104.352 242.683 104.363 242.96C104.374 243.227 104.411 243.499 104.475 243.776L103.835 243.072C104.027 242.635 104.288 242.272 104.619 241.984C104.96 241.685 105.36 241.461 105.819 241.312C106.288 241.163 106.795 241.088 107.339 241.088C108.075 241.088 108.731 241.232 109.307 241.52C109.883 241.797 110.342 242.197 110.683 242.72C111.024 243.232 111.195 243.835 111.195 244.528C111.195 245.264 111.014 245.904 110.651 246.448C110.288 246.992 109.798 247.413 109.179 247.712C108.56 248.011 107.867 248.16 107.099 248.16ZM106.987 246.528C107.414 246.528 107.792 246.453 108.123 246.304C108.454 246.144 108.71 245.92 108.891 245.632C109.083 245.344 109.179 245.008 109.179 244.624C109.179 244.037 108.976 243.573 108.571 243.232C108.166 242.891 107.622 242.72 106.939 242.72C106.491 242.72 106.096 242.805 105.755 242.976C105.424 243.136 105.158 243.36 104.955 243.648C104.763 243.936 104.667 244.267 104.667 244.64C104.667 244.981 104.758 245.296 104.939 245.584C105.12 245.872 105.382 246.101 105.723 246.272C106.075 246.443 106.496 246.528 106.987 246.528ZM117.13 248.16C116.117 248.16 115.247 247.947 114.522 247.52C113.797 247.083 113.242 246.453 112.858 245.632C112.474 244.811 112.282 243.797 112.282 242.592C112.282 241.312 112.511 240.229 112.97 239.344C113.439 238.459 114.085 237.787 114.906 237.328C115.738 236.869 116.693 236.64 117.77 236.64C118.335 236.64 118.874 236.699 119.386 236.816C119.909 236.933 120.351 237.115 120.714 237.36L119.946 238.928C119.637 238.725 119.301 238.587 118.938 238.512C118.586 238.427 118.213 238.384 117.818 238.384C116.762 238.384 115.925 238.709 115.306 239.36C114.687 240.011 114.378 240.971 114.378 242.24C114.378 242.443 114.383 242.683 114.394 242.96C114.405 243.227 114.442 243.499 114.506 243.776L113.866 243.072C114.058 242.635 114.319 242.272 114.65 241.984C114.991 241.685 115.391 241.461 115.85 241.312C116.319 241.163 116.826 241.088 117.37 241.088C118.106 241.088 118.762 241.232 119.338 241.52C119.914 241.797 120.373 242.197 120.714 242.72C121.055 243.232 121.226 243.835 121.226 244.528C121.226 245.264 121.045 245.904 120.682 246.448C120.319 246.992 119.829 247.413 119.21 247.712C118.591 248.011 117.898 248.16 117.13 248.16ZM117.018 246.528C117.445 246.528 117.823 246.453 118.154 246.304C118.485 246.144 118.741 245.92 118.922 245.632C119.114 245.344 119.21 245.008 119.21 244.624C119.21 244.037 119.007 243.573 118.602 243.232C118.197 242.891 117.653 242.72 116.97 242.72C116.522 242.72 116.127 242.805 115.786 242.976C115.455 243.136 115.189 243.36 114.986 243.648C114.794 243.936 114.698 244.267 114.698 244.64C114.698 244.981 114.789 245.296 114.97 245.584C115.151 245.872 115.413 246.101 115.754 246.272C116.106 246.443 116.527 246.528 117.018 246.528ZM127.161 248.16C126.148 248.16 125.279 247.947 124.553 247.52C123.828 247.083 123.273 246.453 122.889 245.632C122.505 244.811 122.313 243.797 122.313 242.592C122.313 241.312 122.543 240.229 123.001 239.344C123.471 238.459 124.116 237.787 124.937 237.328C125.769 236.869 126.724 236.64 127.801 236.64C128.367 236.64 128.905 236.699 129.417 236.816C129.94 236.933 130.383 237.115 130.745 237.36L129.977 238.928C129.668 238.725 129.332 238.587 128.969 238.512C128.617 238.427 128.244 238.384 127.849 238.384C126.793 238.384 125.956 238.709 125.337 239.36C124.719 240.011 124.409 240.971 124.409 242.24C124.409 242.443 124.415 242.683 124.425 242.96C124.436 243.227 124.473 243.499 124.537 243.776L123.897 243.072C124.089 242.635 124.351 242.272 124.681 241.984C125.023 241.685 125.423 241.461 125.881 241.312C126.351 241.163 126.857 241.088 127.401 241.088C128.137 241.088 128.793 241.232 129.369 241.52C129.945 241.797 130.404 242.197 130.745 242.72C131.087 243.232 131.257 243.835 131.257 244.528C131.257 245.264 131.076 245.904 130.713 246.448C130.351 246.992 129.86 247.413 129.241 247.712C128.623 248.011 127.929 248.16 127.161 248.16ZM127.049 246.528C127.476 246.528 127.855 246.453 128.185 246.304C128.516 246.144 128.772 245.92 128.953 245.632C129.145 245.344 129.241 245.008 129.241 244.624C129.241 244.037 129.039 243.573 128.633 243.232C128.228 242.891 127.684 242.72 127.001 242.72C126.553 242.72 126.159 242.805 125.817 242.976C125.487 243.136 125.22 243.36 125.017 243.648C124.825 243.936 124.729 244.267 124.729 244.64C124.729 244.981 124.82 245.296 125.001 245.584C125.183 245.872 125.444 246.101 125.785 246.272C126.137 246.443 126.559 246.528 127.049 246.528ZM134.137 248V237.6L135.049 238.544H131.769V236.8H136.217V248H134.137Z" fill="#030522" />
                    <path d="M208.894 220.112C208.138 220.112 207.443 219.991 206.808 219.748C206.173 219.496 205.623 219.146 205.156 218.698C204.689 218.241 204.325 217.709 204.064 217.102C203.803 216.495 203.672 215.828 203.672 215.1C203.672 214.372 203.803 213.705 204.064 213.098C204.325 212.491 204.689 211.964 205.156 211.516C205.632 211.059 206.187 210.709 206.822 210.466C207.457 210.214 208.157 210.088 208.922 210.088C209.697 210.088 210.406 210.214 211.05 210.466C211.694 210.718 212.24 211.096 212.688 211.6L211.82 212.468C211.419 212.076 210.98 211.791 210.504 211.614C210.037 211.427 209.529 211.334 208.978 211.334C208.418 211.334 207.895 211.427 207.41 211.614C206.934 211.801 206.519 212.062 206.164 212.398C205.819 212.734 205.548 213.135 205.352 213.602C205.165 214.059 205.072 214.559 205.072 215.1C205.072 215.632 205.165 216.131 205.352 216.598C205.548 217.055 205.819 217.457 206.164 217.802C206.519 218.138 206.934 218.399 207.41 218.586C207.886 218.773 208.404 218.866 208.964 218.866C209.487 218.866 209.986 218.787 210.462 218.628C210.947 218.46 211.395 218.185 211.806 217.802L212.604 218.866C212.119 219.277 211.549 219.589 210.896 219.804C210.252 220.009 209.585 220.112 208.894 220.112ZM211.26 218.684V215.044H212.604V218.866L211.26 218.684ZM219.694 220V218.432L219.624 218.138V215.464C219.624 214.895 219.456 214.456 219.12 214.148C218.794 213.831 218.299 213.672 217.636 213.672C217.198 213.672 216.768 213.747 216.348 213.896C215.928 214.036 215.574 214.227 215.284 214.47L214.724 213.462C215.107 213.154 215.564 212.921 216.096 212.762C216.638 212.594 217.202 212.51 217.79 212.51C218.808 212.51 219.592 212.757 220.142 213.252C220.693 213.747 220.968 214.503 220.968 215.52V220H219.694ZM217.258 220.084C216.708 220.084 216.222 219.991 215.802 219.804C215.392 219.617 215.074 219.361 214.85 219.034C214.626 218.698 214.514 218.32 214.514 217.9C214.514 217.499 214.608 217.135 214.794 216.808C214.99 216.481 215.303 216.22 215.732 216.024C216.171 215.828 216.759 215.73 217.496 215.73H219.848V216.696H217.552C216.88 216.696 216.428 216.808 216.194 217.032C215.961 217.256 215.844 217.527 215.844 217.844C215.844 218.208 215.989 218.502 216.278 218.726C216.568 218.941 216.969 219.048 217.482 219.048C217.986 219.048 218.425 218.936 218.798 218.712C219.181 218.488 219.456 218.161 219.624 217.732L219.89 218.656C219.713 219.095 219.4 219.445 218.952 219.706C218.504 219.958 217.94 220.084 217.258 220.084ZM226.004 220.084C225.257 220.084 224.678 219.883 224.268 219.482C223.857 219.081 223.652 218.507 223.652 217.76V210.956H224.996V217.704C224.996 218.105 225.094 218.413 225.29 218.628C225.495 218.843 225.784 218.95 226.158 218.95C226.578 218.95 226.928 218.833 227.208 218.6L227.628 219.566C227.422 219.743 227.175 219.874 226.886 219.958C226.606 220.042 226.312 220.084 226.004 220.084ZM222.392 213.686V212.58H227.124V213.686H222.392ZM232.31 220.084C231.517 220.084 230.817 219.921 230.21 219.594C229.613 219.267 229.146 218.819 228.81 218.25C228.484 217.681 228.32 217.027 228.32 216.29C228.32 215.553 228.479 214.899 228.796 214.33C229.123 213.761 229.566 213.317 230.126 213C230.696 212.673 231.335 212.51 232.044 212.51C232.763 212.51 233.398 212.669 233.948 212.986C234.499 213.303 234.928 213.751 235.236 214.33C235.554 214.899 235.712 215.567 235.712 216.332C235.712 216.388 235.708 216.453 235.698 216.528C235.698 216.603 235.694 216.673 235.684 216.738H229.37V215.772H234.984L234.438 216.108C234.448 215.632 234.35 215.207 234.144 214.834C233.939 214.461 233.654 214.171 233.29 213.966C232.936 213.751 232.52 213.644 232.044 213.644C231.578 213.644 231.162 213.751 230.798 213.966C230.434 214.171 230.15 214.465 229.944 214.848C229.739 215.221 229.636 215.651 229.636 216.136V216.36C229.636 216.855 229.748 217.298 229.972 217.69C230.206 218.073 230.528 218.371 230.938 218.586C231.349 218.801 231.82 218.908 232.352 218.908C232.791 218.908 233.188 218.833 233.542 218.684C233.906 218.535 234.224 218.311 234.494 218.012L235.236 218.88C234.9 219.272 234.48 219.571 233.976 219.776C233.482 219.981 232.926 220.084 232.31 220.084Z" fill="#9CA3AF" />
                    <path d="M203.56 248V246.608L208.008 242.384C208.381 242.032 208.659 241.723 208.84 241.456C209.021 241.189 209.139 240.944 209.192 240.72C209.256 240.485 209.288 240.267 209.288 240.064C209.288 239.552 209.112 239.157 208.76 238.88C208.408 238.592 207.891 238.448 207.208 238.448C206.664 238.448 206.168 238.544 205.72 238.736C205.283 238.928 204.904 239.221 204.584 239.616L203.128 238.496C203.565 237.909 204.152 237.456 204.888 237.136C205.635 236.805 206.467 236.64 207.384 236.64C208.195 236.64 208.899 236.773 209.496 237.04C210.104 237.296 210.568 237.664 210.888 238.144C211.219 238.624 211.384 239.195 211.384 239.856C211.384 240.219 211.336 240.581 211.24 240.944C211.144 241.296 210.963 241.669 210.696 242.064C210.429 242.459 210.04 242.901 209.528 243.392L205.704 247.024L205.272 246.24H211.816V248H203.56ZM217.689 248.16C216.803 248.16 216.003 247.936 215.289 247.488C214.585 247.04 214.03 246.389 213.625 245.536C213.219 244.672 213.017 243.627 213.017 242.4C213.017 241.173 213.219 240.133 213.625 239.28C214.03 238.416 214.585 237.76 215.289 237.312C216.003 236.864 216.803 236.64 217.689 236.64C218.585 236.64 219.385 236.864 220.089 237.312C220.793 237.76 221.347 238.416 221.753 239.28C222.169 240.133 222.377 241.173 222.377 242.4C222.377 243.627 222.169 244.672 221.753 245.536C221.347 246.389 220.793 247.04 220.089 247.488C219.385 247.936 218.585 248.16 217.689 248.16ZM217.689 246.352C218.211 246.352 218.665 246.213 219.049 245.936C219.433 245.648 219.731 245.211 219.945 244.624C220.169 244.037 220.281 243.296 220.281 242.4C220.281 241.493 220.169 240.752 219.945 240.176C219.731 239.589 219.433 239.157 219.049 238.88C218.665 238.592 218.211 238.448 217.689 238.448C217.187 238.448 216.739 238.592 216.345 238.88C215.961 239.157 215.657 239.589 215.433 240.176C215.219 240.752 215.113 241.493 215.113 242.4C215.113 243.296 215.219 244.037 215.433 244.624C215.657 245.211 215.961 245.648 216.345 245.936C216.739 246.213 217.187 246.352 217.689 246.352ZM227.42 248L232.46 236.8H234.508L239.564 248H237.388L233.052 237.904H233.884L229.564 248H227.42ZM229.74 245.408L230.3 243.776H236.348L236.908 245.408H229.74Z" fill="#030522" />
                    <path d="M35.852 286.112C35.1053 286.112 34.4147 285.991 33.78 285.748C33.1547 285.496 32.6087 285.146 32.142 284.698C31.6847 284.241 31.3253 283.709 31.064 283.102C30.8027 282.495 30.672 281.828 30.672 281.1C30.672 280.372 30.8027 279.705 31.064 279.098C31.3253 278.491 31.6893 277.964 32.156 277.516C32.6227 277.059 33.1687 276.709 33.794 276.466C34.4287 276.214 35.1193 276.088 35.866 276.088C36.622 276.088 37.3173 276.219 37.952 276.48C38.596 276.732 39.142 277.11 39.59 277.614L38.68 278.496C38.3067 278.104 37.8867 277.815 37.42 277.628C36.9533 277.432 36.454 277.334 35.922 277.334C35.3713 277.334 34.858 277.427 34.382 277.614C33.9153 277.801 33.5093 278.062 33.164 278.398C32.8187 278.734 32.548 279.135 32.352 279.602C32.1653 280.059 32.072 280.559 32.072 281.1C32.072 281.641 32.1653 282.145 32.352 282.612C32.548 283.069 32.8187 283.466 33.164 283.802C33.5093 284.138 33.9153 284.399 34.382 284.586C34.858 284.773 35.3713 284.866 35.922 284.866C36.454 284.866 36.9533 284.773 37.42 284.586C37.8867 284.39 38.3067 284.091 38.68 283.69L39.59 284.572C39.142 285.076 38.596 285.459 37.952 285.72C37.3173 285.981 36.6173 286.112 35.852 286.112ZM41.3912 286V275.612H42.7352V286H41.3912ZM49.9073 286V284.432L49.8373 284.138V281.464C49.8373 280.895 49.6693 280.456 49.3333 280.148C49.0067 279.831 48.512 279.672 47.8493 279.672C47.4107 279.672 46.9813 279.747 46.5613 279.896C46.1413 280.036 45.7867 280.227 45.4973 280.47L44.9373 279.462C45.32 279.154 45.7773 278.921 46.3093 278.762C46.8507 278.594 47.4153 278.51 48.0033 278.51C49.0207 278.51 49.8047 278.757 50.3553 279.252C50.906 279.747 51.1813 280.503 51.1813 281.52V286H49.9073ZM47.4713 286.084C46.9207 286.084 46.4353 285.991 46.0153 285.804C45.6047 285.617 45.2873 285.361 45.0633 285.034C44.8393 284.698 44.7273 284.32 44.7273 283.9C44.7273 283.499 44.8207 283.135 45.0073 282.808C45.2033 282.481 45.516 282.22 45.9453 282.024C46.384 281.828 46.972 281.73 47.7093 281.73H50.0613V282.696H47.7653C47.0933 282.696 46.6407 282.808 46.4073 283.032C46.174 283.256 46.0573 283.527 46.0573 283.844C46.0573 284.208 46.202 284.502 46.4913 284.726C46.7807 284.941 47.182 285.048 47.6953 285.048C48.1993 285.048 48.638 284.936 49.0113 284.712C49.394 284.488 49.6693 284.161 49.8373 283.732L50.1033 284.656C49.926 285.095 49.6133 285.445 49.1653 285.706C48.7173 285.958 48.1527 286.084 47.4713 286.084ZM55.7965 286.084C55.1805 286.084 54.5925 286 54.0325 285.832C53.4819 285.664 53.0479 285.459 52.7305 285.216L53.2905 284.152C53.6079 284.367 53.9999 284.549 54.4665 284.698C54.9332 284.847 55.4092 284.922 55.8945 284.922C56.5199 284.922 56.9679 284.833 57.2385 284.656C57.5185 284.479 57.6585 284.231 57.6585 283.914C57.6585 283.681 57.5745 283.499 57.4065 283.368C57.2385 283.237 57.0145 283.139 56.7345 283.074C56.4639 283.009 56.1605 282.953 55.8245 282.906C55.4885 282.85 55.1525 282.785 54.8165 282.71C54.4805 282.626 54.1725 282.514 53.8925 282.374C53.6125 282.225 53.3885 282.024 53.2205 281.772C53.0525 281.511 52.9685 281.165 52.9685 280.736C52.9685 280.288 53.0945 279.896 53.3465 279.56C53.5985 279.224 53.9532 278.967 54.4105 278.79C54.8772 278.603 55.4279 278.51 56.0625 278.51C56.5479 278.51 57.0379 278.571 57.5325 278.692C58.0365 278.804 58.4472 278.967 58.7645 279.182L58.1905 280.246C57.8545 280.022 57.5045 279.868 57.1405 279.784C56.7765 279.7 56.4125 279.658 56.0485 279.658C55.4605 279.658 55.0219 279.756 54.7325 279.952C54.4432 280.139 54.2985 280.381 54.2985 280.68C54.2985 280.932 54.3825 281.128 54.5505 281.268C54.7279 281.399 54.9519 281.501 55.2225 281.576C55.5025 281.651 55.8105 281.716 56.1465 281.772C56.4825 281.819 56.8185 281.884 57.1545 281.968C57.4905 282.043 57.7939 282.15 58.0645 282.29C58.3445 282.43 58.5685 282.626 58.7365 282.878C58.9139 283.13 59.0025 283.466 59.0025 283.886C59.0025 284.334 58.8719 284.721 58.6105 285.048C58.3492 285.375 57.9805 285.631 57.5045 285.818C57.0285 285.995 56.4592 286.084 55.7965 286.084ZM62.8102 286.084C62.1942 286.084 61.6062 286 61.0462 285.832C60.4955 285.664 60.0615 285.459 59.7442 285.216L60.3042 284.152C60.6215 284.367 61.0135 284.549 61.4802 284.698C61.9469 284.847 62.4229 284.922 62.9082 284.922C63.5335 284.922 63.9815 284.833 64.2522 284.656C64.5322 284.479 64.6722 284.231 64.6722 283.914C64.6722 283.681 64.5882 283.499 64.4202 283.368C64.2522 283.237 64.0282 283.139 63.7482 283.074C63.4775 283.009 63.1742 282.953 62.8382 282.906C62.5022 282.85 62.1662 282.785 61.8302 282.71C61.4942 282.626 61.1862 282.514 60.9062 282.374C60.6262 282.225 60.4022 282.024 60.2342 281.772C60.0662 281.511 59.9822 281.165 59.9822 280.736C59.9822 280.288 60.1082 279.896 60.3602 279.56C60.6122 279.224 60.9669 278.967 61.4242 278.79C61.8909 278.603 62.4415 278.51 63.0762 278.51C63.5615 278.51 64.0515 278.571 64.5462 278.692C65.0502 278.804 65.4609 278.967 65.7782 279.182L65.2042 280.246C64.8682 280.022 64.5182 279.868 64.1542 279.784C63.7902 279.7 63.4262 279.658 63.0622 279.658C62.4742 279.658 62.0355 279.756 61.7462 279.952C61.4569 280.139 61.3122 280.381 61.3122 280.68C61.3122 280.932 61.3962 281.128 61.5642 281.268C61.7415 281.399 61.9655 281.501 62.2362 281.576C62.5162 281.651 62.8242 281.716 63.1602 281.772C63.4962 281.819 63.8322 281.884 64.1682 281.968C64.5042 282.043 64.8075 282.15 65.0782 282.29C65.3582 282.43 65.5822 282.626 65.7502 282.878C65.9275 283.13 66.0162 283.466 66.0162 283.886C66.0162 284.334 65.8855 284.721 65.6242 285.048C65.3629 285.375 64.9942 285.631 64.5182 285.818C64.0422 285.995 63.4729 286.084 62.8102 286.084Z" fill="#9CA3AF" />
                    <path d="M33.424 307.456H38.992V309.168H33.424V307.456ZM33.584 312.256H39.904V314H31.504V302.8H39.68V304.544H33.584V312.256ZM45.8726 314.112C44.9766 314.112 44.1766 313.925 43.4726 313.552C42.7793 313.168 42.2353 312.645 41.8406 311.984C41.446 311.323 41.2486 310.571 41.2486 309.728C41.2486 308.875 41.446 308.123 41.8406 307.472C42.2353 306.811 42.7793 306.293 43.4726 305.92C44.1766 305.547 44.9766 305.36 45.8726 305.36C46.7046 305.36 47.4353 305.531 48.0646 305.872C48.7046 306.203 49.19 306.693 49.5206 307.344L47.9846 308.24C47.7286 307.835 47.414 307.536 47.0406 307.344C46.678 307.152 46.2833 307.056 45.8566 307.056C45.366 307.056 44.9233 307.163 44.5286 307.376C44.134 307.589 43.8246 307.899 43.6006 308.304C43.3766 308.699 43.2646 309.173 43.2646 309.728C43.2646 310.283 43.3766 310.763 43.6006 311.168C43.8246 311.563 44.134 311.867 44.5286 312.08C44.9233 312.293 45.366 312.4 45.8566 312.4C46.2833 312.4 46.678 312.304 47.0406 312.112C47.414 311.92 47.7286 311.621 47.9846 311.216L49.5206 312.112C49.19 312.752 48.7046 313.248 48.0646 313.6C47.4353 313.941 46.7046 314.112 45.8726 314.112ZM54.9645 314.112C54.0898 314.112 53.3112 313.925 52.6285 313.552C51.9458 313.168 51.4072 312.645 51.0125 311.984C50.6178 311.323 50.4205 310.571 50.4205 309.728C50.4205 308.875 50.6178 308.123 51.0125 307.472C51.4072 306.811 51.9458 306.293 52.6285 305.92C53.3112 305.547 54.0898 305.36 54.9645 305.36C55.8498 305.36 56.6338 305.547 57.3165 305.92C58.0098 306.293 58.5485 306.805 58.9325 307.456C59.3272 308.107 59.5245 308.864 59.5245 309.728C59.5245 310.571 59.3272 311.323 58.9325 311.984C58.5485 312.645 58.0098 313.168 57.3165 313.552C56.6338 313.925 55.8498 314.112 54.9645 314.112ZM54.9645 312.4C55.4552 312.4 55.8925 312.293 56.2765 312.08C56.6605 311.867 56.9592 311.557 57.1725 311.152C57.3965 310.747 57.5085 310.272 57.5085 309.728C57.5085 309.173 57.3965 308.699 57.1725 308.304C56.9592 307.899 56.6605 307.589 56.2765 307.376C55.8925 307.163 55.4605 307.056 54.9805 307.056C54.4898 307.056 54.0525 307.163 53.6685 307.376C53.2952 307.589 52.9965 307.899 52.7725 308.304C52.5485 308.699 52.4365 309.173 52.4365 309.728C52.4365 310.272 52.5485 310.747 52.7725 311.152C52.9965 311.557 53.2952 311.867 53.6685 312.08C54.0525 312.293 54.4845 312.4 54.9645 312.4ZM66.285 305.36C66.9677 305.36 67.5757 305.493 68.109 305.76C68.653 306.027 69.0797 306.437 69.389 306.992C69.6983 307.536 69.853 308.24 69.853 309.104V314H67.853V309.36C67.853 308.603 67.6717 308.037 67.309 307.664C66.957 307.291 66.461 307.104 65.821 307.104C65.3517 307.104 64.9357 307.2 64.573 307.392C64.2103 307.584 63.9277 307.872 63.725 308.256C63.533 308.629 63.437 309.104 63.437 309.68V314H61.437V305.456H63.341V307.76L63.005 307.056C63.3037 306.512 63.7357 306.096 64.301 305.808C64.877 305.509 65.5383 305.36 66.285 305.36ZM76.2458 314.112C75.3711 314.112 74.5924 313.925 73.9098 313.552C73.2271 313.168 72.6884 312.645 72.2938 311.984C71.8991 311.323 71.7018 310.571 71.7018 309.728C71.7018 308.875 71.8991 308.123 72.2938 307.472C72.6884 306.811 73.2271 306.293 73.9098 305.92C74.5924 305.547 75.3711 305.36 76.2458 305.36C77.1311 305.36 77.9151 305.547 78.5978 305.92C79.2911 306.293 79.8298 306.805 80.2138 307.456C80.6084 308.107 80.8058 308.864 80.8058 309.728C80.8058 310.571 80.6084 311.323 80.2138 311.984C79.8298 312.645 79.2911 313.168 78.5978 313.552C77.9151 313.925 77.1311 314.112 76.2458 314.112ZM76.2458 312.4C76.7364 312.4 77.1738 312.293 77.5578 312.08C77.9418 311.867 78.2404 311.557 78.4538 311.152C78.6778 310.747 78.7898 310.272 78.7898 309.728C78.7898 309.173 78.6778 308.699 78.4538 308.304C78.2404 307.899 77.9418 307.589 77.5578 307.376C77.1738 307.163 76.7418 307.056 76.2618 307.056C75.7711 307.056 75.3338 307.163 74.9498 307.376C74.5764 307.589 74.2778 307.899 74.0538 308.304C73.8298 308.699 73.7178 309.173 73.7178 309.728C73.7178 310.272 73.8298 310.747 74.0538 311.152C74.2778 311.557 74.5764 311.867 74.9498 312.08C75.3338 312.293 75.7658 312.4 76.2458 312.4ZM93.5023 305.36C94.1849 305.36 94.7876 305.493 95.3103 305.76C95.8436 306.027 96.2596 306.437 96.5583 306.992C96.8569 307.536 97.0063 308.24 97.0063 309.104V314H95.0063V309.36C95.0063 308.603 94.8409 308.037 94.5103 307.664C94.1796 307.291 93.7049 307.104 93.0863 307.104C92.6489 307.104 92.2596 307.2 91.9183 307.392C91.5876 307.584 91.3263 307.867 91.1343 308.24C90.9529 308.613 90.8623 309.088 90.8623 309.664V314H88.8623V309.36C88.8623 308.603 88.6969 308.037 88.3663 307.664C88.0356 307.291 87.5609 307.104 86.9423 307.104C86.5049 307.104 86.1156 307.2 85.7743 307.392C85.4436 307.584 85.1823 307.867 84.9903 308.24C84.8089 308.613 84.7183 309.088 84.7183 309.664V314H82.7183V305.456H84.6223V307.728L84.2863 307.056C84.5743 306.501 84.9903 306.08 85.5343 305.792C86.0889 305.504 86.7183 305.36 87.4223 305.36C88.2223 305.36 88.9156 305.557 89.5023 305.952C90.0996 306.347 90.4943 306.944 90.6863 307.744L89.9023 307.472C90.1796 306.832 90.6383 306.32 91.2783 305.936C91.9183 305.552 92.6596 305.36 93.5023 305.36ZM100.11 317.216C99.6938 317.216 99.2778 317.147 98.8618 317.008C98.4458 316.869 98.0991 316.677 97.8217 316.432L98.6217 314.96C98.8244 315.141 99.0538 315.285 99.3098 315.392C99.5658 315.499 99.8271 315.552 100.094 315.552C100.456 315.552 100.75 315.461 100.974 315.28C101.198 315.099 101.406 314.795 101.598 314.368L102.094 313.248L102.254 313.008L105.486 305.456H107.406L103.406 314.688C103.139 315.328 102.84 315.835 102.51 316.208C102.19 316.581 101.827 316.843 101.422 316.992C101.027 317.141 100.59 317.216 100.11 317.216ZM101.87 314.304L98.0137 305.456H100.094L103.23 312.832L101.87 314.304Z" fill="#030522" />
                    <path d="M207.326 286.112C206.579 286.112 205.865 286 205.184 285.776C204.503 285.543 203.966 285.244 203.574 284.88L204.092 283.788C204.465 284.115 204.941 284.385 205.52 284.6C206.099 284.815 206.701 284.922 207.326 284.922C207.895 284.922 208.357 284.857 208.712 284.726C209.067 284.595 209.328 284.418 209.496 284.194C209.664 283.961 209.748 283.699 209.748 283.41C209.748 283.074 209.636 282.803 209.412 282.598C209.197 282.393 208.913 282.229 208.558 282.108C208.213 281.977 207.83 281.865 207.41 281.772C206.99 281.679 206.565 281.571 206.136 281.45C205.716 281.319 205.329 281.156 204.974 280.96C204.629 280.764 204.349 280.503 204.134 280.176C203.919 279.84 203.812 279.411 203.812 278.888C203.812 278.384 203.943 277.922 204.204 277.502C204.475 277.073 204.885 276.732 205.436 276.48C205.996 276.219 206.705 276.088 207.564 276.088C208.133 276.088 208.698 276.163 209.258 276.312C209.818 276.461 210.303 276.676 210.714 276.956L210.252 278.076C209.832 277.796 209.389 277.595 208.922 277.474C208.455 277.343 208.003 277.278 207.564 277.278C207.013 277.278 206.561 277.348 206.206 277.488C205.851 277.628 205.59 277.815 205.422 278.048C205.263 278.281 205.184 278.543 205.184 278.832C205.184 279.177 205.291 279.453 205.506 279.658C205.73 279.863 206.015 280.027 206.36 280.148C206.715 280.269 207.102 280.381 207.522 280.484C207.942 280.577 208.362 280.685 208.782 280.806C209.211 280.927 209.599 281.086 209.944 281.282C210.299 281.478 210.583 281.739 210.798 282.066C211.013 282.393 211.12 282.813 211.12 283.326C211.12 283.821 210.985 284.283 210.714 284.712C210.443 285.132 210.023 285.473 209.454 285.734C208.894 285.986 208.185 286.112 207.326 286.112ZM216.273 286.084C215.48 286.084 214.78 285.921 214.173 285.594C213.576 285.267 213.109 284.819 212.773 284.25C212.447 283.681 212.283 283.027 212.283 282.29C212.283 281.553 212.442 280.899 212.759 280.33C213.086 279.761 213.529 279.317 214.089 279C214.659 278.673 215.298 278.51 216.007 278.51C216.726 278.51 217.361 278.669 217.911 278.986C218.462 279.303 218.891 279.751 219.199 280.33C219.517 280.899 219.675 281.567 219.675 282.332C219.675 282.388 219.671 282.453 219.661 282.528C219.661 282.603 219.657 282.673 219.647 282.738H213.333V281.772H218.947L218.401 282.108C218.411 281.632 218.313 281.207 218.107 280.834C217.902 280.461 217.617 280.171 217.253 279.966C216.899 279.751 216.483 279.644 216.007 279.644C215.541 279.644 215.125 279.751 214.761 279.966C214.397 280.171 214.113 280.465 213.907 280.848C213.702 281.221 213.599 281.651 213.599 282.136V282.36C213.599 282.855 213.711 283.298 213.935 283.69C214.169 284.073 214.491 284.371 214.901 284.586C215.312 284.801 215.783 284.908 216.315 284.908C216.754 284.908 217.151 284.833 217.505 284.684C217.869 284.535 218.187 284.311 218.457 284.012L219.199 284.88C218.863 285.272 218.443 285.571 217.939 285.776C217.445 285.981 216.889 286.084 216.273 286.084ZM225.943 286V284.432L225.873 284.138V281.464C225.873 280.895 225.705 280.456 225.369 280.148C225.042 279.831 224.547 279.672 223.885 279.672C223.446 279.672 223.017 279.747 222.597 279.896C222.177 280.036 221.822 280.227 221.533 280.47L220.973 279.462C221.355 279.154 221.813 278.921 222.345 278.762C222.886 278.594 223.451 278.51 224.039 278.51C225.056 278.51 225.84 278.757 226.391 279.252C226.941 279.747 227.217 280.503 227.217 281.52V286H225.943ZM223.507 286.084C222.956 286.084 222.471 285.991 222.051 285.804C221.64 285.617 221.323 285.361 221.099 285.034C220.875 284.698 220.763 284.32 220.763 283.9C220.763 283.499 220.856 283.135 221.043 282.808C221.239 282.481 221.551 282.22 221.981 282.024C222.419 281.828 223.007 281.73 223.745 281.73H226.097V282.696H223.801C223.129 282.696 222.676 282.808 222.443 283.032C222.209 283.256 222.093 283.527 222.093 283.844C222.093 284.208 222.237 284.502 222.527 284.726C222.816 284.941 223.217 285.048 223.731 285.048C224.235 285.048 224.673 284.936 225.047 284.712C225.429 284.488 225.705 284.161 225.873 283.732L226.139 284.656C225.961 285.095 225.649 285.445 225.201 285.706C224.753 285.958 224.188 286.084 223.507 286.084ZM232.252 286.084C231.505 286.084 230.926 285.883 230.516 285.482C230.105 285.081 229.9 284.507 229.9 283.76V276.956H231.244V283.704C231.244 284.105 231.342 284.413 231.538 284.628C231.743 284.843 232.032 284.95 232.406 284.95C232.826 284.95 233.176 284.833 233.456 284.6L233.876 285.566C233.67 285.743 233.423 285.874 233.134 285.958C232.854 286.042 232.56 286.084 232.252 286.084ZM228.64 279.686V278.58H233.372V279.686H228.64ZM237.629 286.084C237.013 286.084 236.425 286 235.865 285.832C235.314 285.664 234.88 285.459 234.563 285.216L235.123 284.152C235.44 284.367 235.832 284.549 236.299 284.698C236.765 284.847 237.241 284.922 237.727 284.922C238.352 284.922 238.8 284.833 239.071 284.656C239.351 284.479 239.491 284.231 239.491 283.914C239.491 283.681 239.407 283.499 239.239 283.368C239.071 283.237 238.847 283.139 238.567 283.074C238.296 283.009 237.993 282.953 237.657 282.906C237.321 282.85 236.985 282.785 236.649 282.71C236.313 282.626 236.005 282.514 235.725 282.374C235.445 282.225 235.221 282.024 235.053 281.772C234.885 281.511 234.801 281.165 234.801 280.736C234.801 280.288 234.927 279.896 235.179 279.56C235.431 279.224 235.785 278.967 236.243 278.79C236.709 278.603 237.26 278.51 237.895 278.51C238.38 278.51 238.87 278.571 239.365 278.692C239.869 278.804 240.279 278.967 240.597 279.182L240.023 280.246C239.687 280.022 239.337 279.868 238.973 279.784C238.609 279.7 238.245 279.658 237.881 279.658C237.293 279.658 236.854 279.756 236.565 279.952C236.275 280.139 236.131 280.381 236.131 280.68C236.131 280.932 236.215 281.128 236.383 281.268C236.56 281.399 236.784 281.501 237.055 281.576C237.335 281.651 237.643 281.716 237.979 281.772C238.315 281.819 238.651 281.884 238.987 281.968C239.323 282.043 239.626 282.15 239.897 282.29C240.177 282.43 240.401 282.626 240.569 282.878C240.746 283.13 240.835 283.466 240.835 283.886C240.835 284.334 240.704 284.721 240.443 285.048C240.181 285.375 239.813 285.631 239.337 285.818C238.861 285.995 238.291 286.084 237.629 286.084Z" fill="#9CA3AF" />
                    <path d="M207.416 314.16C206.627 314.16 205.853 314.048 205.096 313.824C204.349 313.589 203.72 313.269 203.208 312.864L204.088 311.248C204.493 311.579 204.984 311.845 205.56 312.048C206.147 312.251 206.755 312.352 207.384 312.352C208.12 312.352 208.696 312.197 209.112 311.888C209.539 311.579 209.752 311.163 209.752 310.64C209.752 310.288 209.661 309.979 209.48 309.712C209.309 309.445 209 309.243 208.552 309.104C208.115 308.965 207.512 308.896 206.744 308.896H204.04L204.616 302.8H211.192V304.544H205.384L206.472 303.552L206.04 308.112L204.952 307.136H207.208C208.317 307.136 209.208 307.285 209.88 307.584C210.563 307.872 211.059 308.277 211.368 308.8C211.688 309.312 211.848 309.899 211.848 310.56C211.848 311.211 211.688 311.808 211.368 312.352C211.048 312.896 210.557 313.333 209.896 313.664C209.245 313.995 208.419 314.16 207.416 314.16ZM213.848 314V302.8H219.096C220.44 302.8 221.464 303.067 222.168 303.6C222.872 304.123 223.224 304.827 223.224 305.712C223.224 306.309 223.085 306.821 222.808 307.248C222.53 307.664 222.157 307.989 221.688 308.224C221.229 308.448 220.728 308.56 220.184 308.56L220.472 307.984C221.101 307.984 221.666 308.101 222.168 308.336C222.669 308.56 223.064 308.891 223.352 309.328C223.65 309.765 223.8 310.309 223.8 310.96C223.8 311.92 223.432 312.667 222.696 313.2C221.96 313.733 220.866 314 219.416 314H213.848ZM215.928 312.368H219.288C220.066 312.368 220.664 312.24 221.08 311.984C221.496 311.728 221.704 311.317 221.704 310.752C221.704 310.197 221.496 309.792 221.08 309.536C220.664 309.269 220.066 309.136 219.288 309.136H215.768V307.52H218.872C219.597 307.52 220.152 307.392 220.536 307.136C220.93 306.88 221.128 306.496 221.128 305.984C221.128 305.461 220.93 305.072 220.536 304.816C220.152 304.56 219.597 304.432 218.872 304.432H215.928V312.368ZM229.818 310.384V308.72H234.218V310.384H229.818ZM242.012 314V303.6L242.924 304.544H239.644V302.8H244.092V314H242.012ZM248.105 314V303.6L249.017 304.544H245.737V302.8H250.185V314H248.105ZM253.207 314V302.8H258.455C259.799 302.8 260.823 303.067 261.527 303.6C262.231 304.123 262.583 304.827 262.583 305.712C262.583 306.309 262.444 306.821 262.167 307.248C261.89 307.664 261.516 307.989 261.047 308.224C260.588 308.448 260.087 308.56 259.543 308.56L259.831 307.984C260.46 307.984 261.026 308.101 261.527 308.336C262.028 308.56 262.423 308.891 262.711 309.328C263.01 309.765 263.159 310.309 263.159 310.96C263.159 311.92 262.791 312.667 262.055 313.2C261.319 313.733 260.226 314 258.775 314H253.207ZM255.287 312.368H258.647C259.426 312.368 260.023 312.24 260.439 311.984C260.855 311.728 261.063 311.317 261.063 310.752C261.063 310.197 260.855 309.792 260.439 309.536C260.023 309.269 259.426 309.136 258.647 309.136H255.127V307.52H258.231C258.956 307.52 259.511 307.392 259.895 307.136C260.29 306.88 260.487 306.496 260.487 305.984C260.487 305.461 260.29 305.072 259.895 304.816C259.511 304.56 258.956 304.432 258.231 304.432H255.287V312.368Z" fill="#030522" />
                </g>
                <path d="M17 358L372 358" stroke="#868D96" stroke-dasharray="4 4" />
                <path d="M21 405H17V475H21V405Z" fill="#030522" />
                <path d="M25 405H23V475H25V405Z" fill="#030522" />
                <path d="M31 405H29V475H31V405Z" fill="#030522" />
                <path d="M43 405H39V475H43V405Z" fill="#030522" />
                <path d="M51 405H49V475H51V405Z" fill="#030522" />
                <path d="M59 405H53V475H59V405Z" fill="#030522" />
                <path d="M63 405H61V475H63V405Z" fill="#030522" />
                <path d="M69 405H67V475H69V405Z" fill="#030522" />
                <path d="M75 405H71V475H75V405Z" fill="#030522" />
                <path d="M85 405H83V475H85V405Z" fill="#030522" />
                <path d="M97 405H93V475H97V405Z" fill="#030522" />
                <path d="M103 405H101V475H103V405Z" fill="#030522" />
                <path d="M107 405H105V475H107V405Z" fill="#030522" />
                <path d="M119 405H111V475H119V405Z" fill="#030522" />
                <path d="M125 405H123V475H125V405Z" fill="#030522" />
                <path d="M135 405H127V475H135V405Z" fill="#030522" />
                <path d="M143 405H137V475H143V405Z" fill="#030522" />
                <path d="M147 405H145V475H147V405Z" fill="#030522" />
                <path d="M151 405H149V475H151V405Z" fill="#030522" />
                <path d="M163 405H155V475H163V405Z" fill="#030522" />
                <path d="M169 405H167V475H169V405Z" fill="#030522" />
                <path d="M175 405H171V475H175V405Z" fill="#030522" />
                <path d="M181 405H179V475H181V405Z" fill="#030522" />
                <path d="M185 405H183V475H185V405Z" fill="#030522" />
                <path d="M197 405H193V475H197V405Z" fill="#030522" />
                <path d="M203 405H201V475H203V405Z" fill="#030522" />
                <path d="M207 405H205V475H207V405Z" fill="#030522" />
                <path d="M217 405H215V475H217V405Z" fill="#030522" />
                <path d="M223 405H221V475H223V405Z" fill="#030522" />
                <path d="M229 405H225V475H229V405Z" fill="#030522" />
                <path d="M239 405H237V475H239V405Z" fill="#030522" />
                <path d="M247 405H243V475H247V405Z" fill="#030522" />
                <path d="M257 405H255V475H257V405Z" fill="#030522" />
                <path d="M263 405H259V475H263V405Z" fill="#030522" />
                <path d="M273 405H267V475H273V405Z" fill="#030522" />
                <path d="M279 405H277V475H279V405Z" fill="#030522" />
                <path d="M283 405H281V475H283V405Z" fill="#030522" />
                <path d="M293 405H287V475H293V405Z" fill="#030522" />
                <path d="M299 405H295V475H299V405Z" fill="#030522" />
                <path d="M305 405H303V475H305V405Z" fill="#030522" />
                <path d="M315 405H309V475H315V405Z" fill="#030522" />
                <path d="M321 405H317V475H321V405Z" fill="#030522" />
                <path d="M327 405H325V475H327V405Z" fill="#030522" />
                <path d="M335 405H329V475H335V405Z" fill="#030522" />
                <path d="M345 405H341V475H345V405Z" fill="#030522" />
                <path d="M351 405H347V475H351V405Z" fill="#030522" />
                <path d="M363 405H357V475H363V405Z" fill="#030522" />
                <path d="M367 405H365V475H367V405Z" fill="#030522" />
                <path d="M373 405H369V475H373V405Z" fill="#030522" />
                <defs>
                    <clipPath id="clip0_2_7532">
                        <rect width="330" height="36" fill="white" transform="translate(30 30)" />
                    </clipPath>
                    <clipPath id="clip1_2_7532">
                        <rect width="25" height="35" fill="white" transform="translate(301 30.5)" />
                    </clipPath>
                    <clipPath id="clip2_2_7532">
                        <rect width="330" height="230" fill="white" transform="translate(30 90)" />
                    </clipPath>
                </defs>
            </svg>